<?xml version="1.0" encoding="UTF-8" standalone="no"?>
<!-- Created with Inkscape (http://www.inkscape.org/) -->

<svg
   xmlns:dc="http://purl.org/dc/elements/1.1/"
   xmlns:cc="http://creativecommons.org/ns#"
   xmlns:rdf="http://www.w3.org/1999/02/22-rdf-syntax-ns#"
   xmlns:svg="http://www.w3.org/2000/svg"
   xmlns="http://www.w3.org/2000/svg"
   version="1.1"
   width="605.28125"
   height="465.45285"
   id="svg3159">
  <metadata
     id="metadata3165">
    <rdf:RDF>
      <cc:Work
         rdf:about="">
        <dc:format>image/svg+xml</dc:format>
        <dc:type
           rdf:resource="http://purl.org/dc/dcmitype/StillImage" />
        <dc:title></dc:title>
      </cc:Work>
    </rdf:RDF>
  </metadata>
  <defs
     id="defs3163" />
  <path
     d="m 0.45164,53.955153 c 0,0 5.39032,-13.001671 9.93399,-11.037765 4.06678,1.757782 -3.68282,9.642947 -1.10377,13.245313 1.76616,2.46694 5.98307,3.25584 8.83021,2.20756 2.9701,-1.09355 3.19335,-5.579523 5.51888,-7.726438 3.15264,-2.910505 8.92373,-2.888882 11.03776,-6.622658 1.81276,-3.201687 0.84532,-7.456934 0,-11.037765 -0.9451,-4.00349 -6.37924,-7.015213 -5.51888,-11.037764 1.09371,-5.113548 7.90461,-6.869184 12.14154,-9.933988 3.88687,-2.8115858 7.8489,-5.5849308 12.14154,-7.7264348 2.81294,-1.403317 6.24644,-5.10188301 8.83021,-3.31133001 3.02407,2.09568401 -2.60163,8.43613901 0,11.03776481 4.68293,4.682928 14.4954,-3.8723348 19.86798,0 0.94387,0.6803 0.29226,2.477583 1.10378,3.311329 3.00371,3.085985 7.83508,4.415106 12.14154,4.415106 4.30646,0 7.9004,-3.667923 12.14154,-4.415106 4.34814,-0.766034 9.0791,1.461431 13.24532,0 2.22307,-0.77981 3.29581,-3.635296 5.51888,-4.415106 6.9437,-2.4357188 14.91387,-1.6906398 22.07553,0 4.00349,0.945096 6.94879,5.070027 11.03776,5.518883 3.01587,0.33106 5.79945,-2.067539 8.83021,-2.207553 4.83415,-0.223326 11.73797,-1.866864 14.3491,2.207553 1.44525,2.255175 -3.52245,5.392849 -2.20756,7.726435 2.05932,3.654748 7.98366,2.754514 12.14154,3.311329 4.01137,0.537195 9.27976,-2.861791 12.14155,0 1.56098,1.560976 -0.21753,4.425849 0,6.622659 0.36972,3.733858 1.04543,7.470149 2.20755,11.037764 1.63159,5.008851 5.49257,9.203842 6.62266,14.34909 1.02607,4.67168 -1.38605,9.7713 0,14.3491 0.76884,2.53931 4.46921,3.97006 4.4151,6.62266 -0.10207,5.00329 -7.28265,7.38251 -8.83021,12.14154 -0.22756,0.69978 -0.20573,1.50105 0,2.20755 1.34123,4.60585 4.29001,8.794349 7.72644,12.141539 3.07364,2.99382 8.74036,2.99883 11.03776,6.62266 1.97983,3.12291 -0.31123,7.62162 1.10378,11.03776 2.00113,4.83115 5.71724,9.04902 9.93398,12.14154 3.19544,2.34351 7.18454,3.49018 11.03777,4.41511 3.95162,0.94855 8.23276,-0.008 12.14154,1.10378 6.33048,1.80087 13.30467,3.89609 17.66042,8.83021 4.38965,4.97252 4.71241,12.41236 6.62266,18.7642 1.74757,5.81089 4.64798,11.59691 4.41511,17.66042 -0.0893,2.32525 -2.65488,4.33909 -2.20756,6.62266 0.65208,3.32884 4.41511,5.15095 6.62266,7.72643 2.20755,2.57548 5.22321,4.63647 6.62266,7.72644 1.07332,2.3699 0.10818,5.32284 1.10378,7.72643 1.40799,3.39919 3.66723,6.63879 6.62266,8.83022 3.45924,2.565 7.83685,4.29171 12.14154,4.4151 3.83968,0.11006 7.50771,-1.79674 11.03776,-3.31133 2.72599,-1.1696 4.93637,-5.42232 7.72644,-4.4151 2.95679,1.0674 0.72756,7.03966 3.31133,8.83021 2.41926,1.67655 6.15609,-1.22992 8.83021,0 3.08177,1.41741 3.43448,6.56803 6.62266,7.72643 2.10346,0.76428 4.39228,-0.91918 6.62266,-1.10377 4.40006,-0.36416 9.16629,-1.68959 13.24531,0 1.44215,0.59736 1.75089,3.35237 3.31133,3.31133 4.94822,-0.13013 7.84209,-0.57829 7.84209,-0.57829"
     id="path3191"
     style="fill:none;stroke:#000000;stroke-width:1px;stroke-linecap:butt;stroke-linejoin:miter;stroke-opacity:1" />
  <path
     d="m 298.47128,40.709835 c -1.42396,-13.452206 21.18982,-8.793862 26.1669,-1.61086 3.84712,5.552224 -7.38041,11.804044 -8.27033,18.49998 -0.86847,6.534562 0.33907,13.538137 3.07518,19.535506 3.79331,8.314663 10.74393,14.998072 17.66043,20.97175 6.39061,5.519469 15.20885,7.742859 21.54527,13.324449 6.47878,5.707 11.36571,13.04547 16.29425,20.13447 3.39529,4.88364 8.89498,9.40876 9.09252,15.35341 0.3119,9.38586 -10.51732,16.01041 -12.71497,25.14069 -3.14147,13.05143 -4.43181,27.54313 -0.16806,40.2722 2.62941,7.84988 10.34009,12.94857 15.04214,19.76217 4.99596,7.2395 9.12175,15.04723 13.96092,22.39246 5.09247,7.7297 14.70178,13.61459 15.85354,22.79908 1.00972,8.05182 -5.25376,15.3774 -8.5327,22.80033 -4.51054,10.21104 -11.27231,19.38085 -15.28031,29.7994 -4.13966,10.76077 -6.63494,22.11821 -8.91481,33.42011 -2.44092,12.10028 -5.27551,24.34056 -5.07317,36.68293 0.13847,8.44614 -0.12592,17.77613 4.29268,24.97561 3.98734,6.4968 12.67165,8.5634 18.34147,13.65854 3.23813,2.90992 5.97506,6.33491 8.87152,9.58508 4.95329,5.55817 23.23826,6.38298 14.54311,16.9515"
     id="path3193"
     style="fill:none;stroke:#000000;stroke-width:1px;stroke-linecap:butt;stroke-linejoin:miter;stroke-opacity:1" />
  <path
     d="m 604.93979,134.62206 c 0,0 -4.34704,3.98229 -7.02439,3.90244 -3.3906,-0.10112 -5.68107,-3.71088 -8.58537,-5.46342 -1.79586,-1.08368 -3.60708,-4.09844 -5.46341,-3.12195 -2.77257,1.45846 1.52486,7.24462 -0.78049,9.36585 -1.53159,1.40927 -4.7722,-1.4717 -6.2439,0 -1.65566,1.65566 0.77504,4.81492 0,7.02439 -1.10282,3.14389 -5.96497,4.48487 -6.24391,7.80488 -0.22426,2.66913 2.54177,4.7172 3.90244,7.02439 1.24679,2.1141 4.24418,3.81344 3.90244,6.2439 -0.48735,3.46604 -4.32969,6.60734 -7.80488,7.02439 -3.81389,0.4577 -6.53557,-6.77398 -10.14634,-5.46341 -2.63391,0.95601 -2.93222,5.00927 -3.12195,7.80488 -0.36316,5.35108 5.21074,10.40838 3.90244,15.60975 -0.94343,3.75077 -4.67931,6.30741 -7.80488,8.58537 -2.54044,1.85151 -6.88348,1.25942 -8.58536,3.90244 -2.11272,3.28107 2.92557,9.12468 0,11.70732 -1.57245,1.38813 -4.54233,-2.00692 -6.24391,-0.78049 -3.22852,2.32699 0.73623,9.18422 -2.34146,11.70732 -1.81075,1.48446 -4.88841,0.95919 -7.02439,0 -2.85784,-1.28336 -3.11248,-6.93237 -6.2439,-7.02439 -2.2066,-0.0649 -2.64342,3.83813 -4.68293,4.68292 -2.40359,0.9956 -5.23218,0.38685 -7.80488,0 -3.49925,-0.52617 -7.22038,-1.13187 -10.14634,-3.12195 -1.37744,-0.93686 -1.78407,-2.9099 -3.12195,-3.90244 -2.25038,-1.6695 -5.4846,-4.69285 -7.80488,-3.12195 -3.01605,2.04197 2.16388,7.99702 0,10.92683 -2.10229,2.84641 -7.71202,0.55373 -10.14634,3.12195 -2.21379,2.33557 -1.10997,6.39278 -2.34146,9.36586 -1.16106,2.80304 -2.04275,6.31003 -4.68293,7.80487 -1.35836,0.76909 -3.24078,0.59736 -4.68293,0 -2.03951,-0.84479 -2.53442,-5.19011 -4.68292,-4.68292 -2.4021,0.56706 -0.33923,5.58126 -2.34147,7.02439 -1.47738,1.06484 -3.81421,-0.77244 -5.46341,0 -1.8401,0.86185 -1.91355,4.26689 -3.90244,4.68292 -2.84709,0.59555 -4.89729,-3.98315 -7.80488,-3.90244 -2.09669,0.0582 -3.66315,2.04559 -5.46341,3.12196 -2.10656,1.25951 -5.05411,1.75574 -6.24391,3.90243 -1.00895,1.8204 1.3453,4.65583 0,6.24391 -1.02289,1.20748 -3.66003,-0.427 -4.68292,0.78048 -1.51347,1.78658 1.84556,5.58343 0,7.0244 -2.53647,1.98042 -6.3596,-3.48957 -9.36586,-2.34147 -2.056,0.7852 -3.70731,5.46342 -3.70731,5.46342"
     id="path3195"
     style="fill:none;stroke:#000000;stroke-width:1px;stroke-linecap:butt;stroke-linejoin:miter;stroke-opacity:1" />
  <path
     d="m 98.01296,216.96352 c 0,0 3.52501,2.70941 4.29268,4.68293 0.61305,1.57602 -0.36277,3.42148 0,5.07317 0.39955,1.81912 1.49399,3.41467 2.34146,5.07317 1.08659,2.12644 1.39836,5.13299 3.5122,6.2439 2.5437,1.33683 5.76161,-1.3133 8.58537,-0.78049 2.00079,0.37752 3.65298,1.80003 5.46341,2.73171 2.22484,1.14495 4.20577,2.90905 6.63415,3.5122 1.89368,0.47034 3.98616,-0.56543 5.85365,0 1.34667,0.40774 2.22897,1.7643 3.5122,2.34146 2.33079,1.04832 5.35675,0.43573 7.41463,1.95122 0.98815,0.7277 0.8333,2.61576 1.95122,3.12195 5.88335,2.66398 12.72587,-4.01679 19.12195,-3.12195 2.42043,0.33863 4.24901,2.58878 6.63415,3.12195 1.90422,0.42566 4.02364,-0.67697 5.85366,0 2.24959,0.83218 3.21382,3.85075 5.46341,4.68293 2.56203,0.94776 5.54812,0.67497 8.19513,0 1.57938,-0.40273 2.66368,-2.28693 4.29268,-2.34147 5.58431,-0.18698 9.83996,5.51444 15.21951,7.02439 3.27788,0.92005 6.98155,2.42575 10.14634,1.17074 5.06281,-2.00768 6.67368,-8.64845 10.53659,-12.48781 0.72059,-0.7162 1.33121,-1.84361 2.34146,-1.95122 3.06643,-0.32662 5.4048,2.97975 8.19512,4.29268 3.95663,1.86172 8.3928,2.75032 12.09756,5.07317 2.49864,1.56662 5.42109,3.16555 6.63415,5.85366 1.01661,2.25279 -0.73482,5.05485 0,7.41464 1.36242,4.37527 5.91808,7.14105 7.80488,11.31707 0.44167,0.97753 1.06682,2.08819 0.78049,3.12195 -0.54016,1.95016 -3.70629,2.35592 -4.29269,4.29268 -0.19221,0.63483 -0.1227,1.5307 0.39025,1.95122 1.60956,1.31952 4.26712,-0.65126 6.2439,0 3.53359,1.16415 6.1565,4.20637 8.97561,6.63415 2.09094,1.80069 3.5219,4.37805 5.85366,5.85366 1.63408,1.0341 4.27896,0.42261 5.46341,1.95122 0.88003,1.13575 -0.64618,3.2976 0.39025,4.29268 1.87903,1.80406 5.5485,-0.91135 7.80488,0.39025 2.28155,1.31612 2.37344,4.8302 4.29268,6.63414 1.74001,1.63548 3.85857,3.39981 6.2439,3.5122 1.27973,0.0603 2.3999,-0.92525 3.5122,-1.56098 0.97151,-0.55527 1.63762,-1.71639 2.7317,-1.95122 1.29703,-0.27839 2.64628,1.20695 3.90244,0.78049 1.30938,-0.44453 1.45529,-2.59013 2.73171,-3.12195 1.92496,-0.80203 4.81606,-1.12963 6.2439,0.39024 0.44533,0.47403 -0.44934,1.48099 0,1.95122 1.97915,2.07116 6.27688,-1.30611 8.58537,0.39025 1.22692,0.90159 0.39019,3.31931 1.56097,4.29268 3.0422,2.52924 8.77953,-0.70963 11.70732,1.95122 1.49443,1.35818 0.11213,4.44695 1.56098,5.85366 1.62991,1.58251 5.1817,-0.18584 6.63414,1.56097 1.74848,2.10285 -0.97345,5.82458 0.39025,8.19512 1.31341,2.28312 4.2947,3.08245 6.63414,4.29269 2.48874,1.28747 5.43526,1.62652 7.80488,3.12195 1.94622,1.22823 5.07317,4.68293 5.07317,4.68293"
     id="path3197"
     style="fill:none;stroke:#000000;stroke-width:1px;stroke-linecap:butt;stroke-linejoin:miter;stroke-opacity:1" />
</svg>
