<?xml version="1.0" encoding="UTF-8" standalone="no"?>
<!-- Created with Inkscape (http://www.inkscape.org/) -->

<svg
   xmlns:dc="http://purl.org/dc/elements/1.1/"
   xmlns:cc="http://creativecommons.org/ns#"
   xmlns:rdf="http://www.w3.org/1999/02/22-rdf-syntax-ns#"
   xmlns:svg="http://www.w3.org/2000/svg"
   xmlns="http://www.w3.org/2000/svg"
   version="1.1"
   width="982"
   height="900"
   id="svg3039">
  <metadata
     id="metadata3045">
    <rdf:RDF>
      <cc:Work
         rdf:about="">
        <dc:format>image/svg+xml</dc:format>
        <dc:type
           rdf:resource="http://purl.org/dc/dcmitype/StillImage" />
        <dc:title></dc:title>
      </cc:Work>
    </rdf:RDF>
  </metadata>
  <defs
     id="defs3043" />
  <path
     d="m 77.701271,100.58263 c 0,0 2.916368,0.90427 4.290255,0.47669 3.011565,-0.93726 4.195296,-5.094672 7.150423,-6.197033 2.382035,-0.888578 5.114422,0.387315 7.627119,0 3.129071,-0.482325 5.978572,-2.121401 9.057202,-2.86017 2.81958,-0.676605 5.68091,-1.417693 8.58051,-1.430084 3.05644,-0.01306 6.29397,0.12373 9.0572,1.430084 1.72982,0.817795 2.54211,3.035715 4.29026,3.81356 1.31462,0.584945 2.97041,-0.09638 4.29025,0.476695 2.68753,1.166939 4.44915,3.813558 6.67373,5.720338 2.22458,1.90678 4.55437,3.69726 6.67373,5.72034 2.68327,2.56137 4.22187,6.63249 7.62712,8.10381 3.93836,1.70165 8.69528,-0.9857 12.87076,0 2.76642,0.65306 4.8607,3.1605 7.62712,3.81356 2.31971,0.54761 4.86922,-0.69069 7.15042,0 2.74167,0.83011 4.44563,3.82362 7.15043,4.76695 3.61333,1.26019 7.62642,1.26271 11.44067,0.95339 3.26505,-0.26478 6.37699,-3.25788 9.5339,-2.38347 3.68156,1.01973 5.00473,5.87012 8.10382,8.10381 2.8824,2.07752 6.11642,3.79476 9.5339,4.76695 3.37622,0.96045 6.9798,1.09103 10.48728,0.95339 6.60402,-0.25915 12.96921,-2.66909 19.54449,-3.33686 4.74519,-0.48191 9.65503,-1.55625 14.30085,-0.4767 2.63117,0.6114 4.63715,2.82345 7.15043,3.81356 2.29509,0.90415 4.73163,2.39092 7.15042,1.90678 2.55544,-0.51149 3.5924,-4.67876 6.19703,-4.76695 2.29035,-0.0776 3.44703,3.52413 5.72034,3.81356 3.83845,0.48869 7.12554,-4.30225 10.96399,-3.81356 2.84164,0.36178 5.96898,2.15735 7.15042,4.76695 0.99172,2.19053 -2.07931,5.02574 -0.95339,7.15042 1.33096,2.5116 5.13977,2.43781 7.62712,3.81356 3.74395,2.07077 6.84442,5.51854 10.96398,6.67373 3.05994,0.85806 7.02901,-1.95576 9.5339,0 1.54919,1.20957 0.63495,3.9229 1.43008,5.72034 0.46355,1.04788 0.9509,2.22833 1.90678,2.86017 2.15787,1.42636 5.66283,-0.25291 7.62712,1.43008 2.17533,1.86381 2.44384,5.26965 2.86017,8.10382 0.48552,3.30517 -1.9645,7.01955 -0.47669,10.01059 1.62919,3.27529 7.6351,2.82666 9.0572,6.19703 1.44209,3.41774 -1.63645,7.26433 -1.90678,10.96399 -0.44019,6.02416 2.94581,12.60189 0.4767,18.1144 -1.10613,2.46954 -5.65297,2.59297 -6.19704,5.24365 -1.14304,5.56882 5.29826,10.06823 7.62712,15.25424 1.05162,2.34179 3.48333,4.66012 2.86017,7.15042 -0.95812,3.8289 -8.60939,3.70565 -9.0572,7.62712 -0.72112,6.31489 6.59618,11.13978 11.44067,15.25424 3.14193,2.66846 7.57783,3.36952 10.96399,5.72033 1.75606,1.21913 2.64816,4.57443 4.76695,4.29026 2.62113,-0.35154 1.66201,-6.96742 4.29025,-6.67373 3.69671,0.41309 3.06085,6.84453 3.81356,10.48729 0.54756,2.64996 -0.035,5.4467 0.4767,8.10381 0.66516,3.4539 1.19173,7.22308 3.33686,10.0106 3.70915,4.81991 10.11642,6.75604 15.25424,10.01059 2.83165,1.79371 6.78171,2.41522 8.58051,5.24364 0.77217,1.21415 -0.40704,3.15473 0.47669,4.29026 1.66764,2.1428 4.9546,3.34003 7.62712,2.86017 3.1044,-0.55741 4.01001,-5.90411 7.15042,-6.19704 2.19795,-0.20502 3.74453,2.3524 5.72034,3.33687 6.62972,3.30335 14.3468,4.45382 20.49788,8.58051 1.86611,1.25195 3.47776,2.92637 4.76695,4.76694 1.50896,2.15434 2.13511,4.81079 3.33687,7.15043 1.33277,2.59471 3.63429,4.78485 4.29025,7.62712 0.6085,2.63663 -1.32273,5.53353 -0.47669,8.10381 0.77604,2.35763 3.92199,3.38652 4.76695,5.72034 0.64912,1.79289 -0.54333,3.89261 0,5.72034 1.24328,4.18231 6.59313,6.63652 7.15042,10.96398 0.3209,2.49183 -2.53492,4.64259 -2.38348,7.15043 0.20136,3.33457 3.27982,5.87303 4.29026,9.0572 1.12202,3.53576 0.19777,7.67159 1.90678,10.96398 2.07058,3.98894 8.68399,5.12067 9.5339,9.5339 0.22884,1.1883 -1.84632,2.20056 -1.43009,3.33686 1.2221,3.33629 6.0395,4.12389 9.5339,4.76695 1.57054,0.28902 3.58292,-1.54822 4.76695,-0.47669 1.5316,1.38608 0.75504,4.27429 0,6.19703 -1.10962,2.82569 -5.88194,3.65438 -6.19703,6.67373 -0.19233,1.84305 1.24764,3.85395 2.86017,4.76695 1.24446,0.7046 3.08278,-0.76626 4.29025,0 2.5207,1.59965 1.69471,6.00066 3.81356,8.10381 1.61469,1.60273 3.92744,3.01808 6.19703,2.86017 2.63822,-0.18356 4.03086,-4.38565 6.67373,-4.29025 1.58795,0.0573 2.22669,2.77831 3.81356,2.86017 2.77589,0.1432 4.4395,-3.67626 7.15042,-4.29026 3.26916,-0.74044 7.16059,2.71779 10.0106,0.95339 1.88177,-1.16498 0.36482,-5.28968 2.38347,-6.19703 2.47658,-1.11319 5.60915,1.04347 7.62712,2.86017 1.32032,1.18863 2.05408,3.02122 2.38348,4.76695 0.32542,1.72466 -1.5171,3.83017 -0.4767,5.24364 1.34865,1.83225 4.41131,1.19041 6.67373,1.43009 1.42213,0.15066 3.05336,-0.7178 4.29025,0 2.21604,1.28602 2.57051,4.43331 3.81356,6.67373 1.13823,2.0515 1.61632,4.60206 3.33687,6.19703 1.14769,1.06392 2.74766,2.17047 4.29025,1.90678 3.87789,-0.66289 4.68031,-7.58817 8.58051,-8.10381 2.32586,-0.3075 3.86574,3.60011 6.19703,3.33686 1.67844,-0.18953 2.12542,-3.27965 3.81356,-3.33686 4.19263,-0.14209 5.84699,8.13968 10.0106,7.62712 3.02947,-0.37295 3.32093,-5.26374 5.72034,-7.15043 2.0676,-1.62578 5.33385,-1.4347 7.15042,-3.33686 2.0176,-2.11266 0.41877,-7.96676 3.33686,-8.10382 3.40794,-0.16007 4.63122,5.64822 4.76695,9.05721 0.19257,4.8367 -5.41416,8.51661 -5.72034,13.34745 -0.0732,1.15448 0.38191,2.33109 0.95339,3.33687 1.83256,3.22525 5.10257,5.38587 7.62712,8.10381 1.76039,1.89524 2.87594,4.67878 5.24365,5.72034 1.89081,0.83177 4.41392,-1.04285 6.19703,0 2.51797,1.47263 2.81053,5.11331 4.29025,7.62712 1.23039,2.09023 3.30901,3.82461 3.81356,6.19703 0.5002,2.35197 -1.28876,4.76936 -0.95339,7.15043 0.38704,2.74792 1.37462,5.66487 3.33687,7.62712 1.96225,1.96225 6.26895,0.9169 7.62712,3.33686 1.72674,3.07668 0.42008,7.48321 -1.43009,10.48729 -1.61793,2.62699 -5.70034,2.83402 -7.62712,5.24364 -1.06878,1.33662 -1.62321,3.07922 -1.90678,4.76695 -0.55352,3.29447 1.16666,6.74198 0.4767,10.0106 -0.51368,2.43352 -3.44628,4.18898 -3.33687,6.67372 0.10669,2.42313 4.59994,3.90258 3.81356,6.19704 -0.88033,2.56858 -6.0071,0.68114 -7.62711,2.86017 -1.42521,1.91702 0.42617,4.93885 -0.4767,7.15042 -0.55371,1.3563 -2.52359,1.91109 -2.86017,3.33687 -0.75262,3.18814 3.53787,6.46826 2.38348,9.53389 -0.88538,2.35123 -5.45688,1.88935 -6.19704,4.29026 -0.65201,2.11498 2.91471,4.04853 2.38348,6.19703 -0.81087,3.27946 -6.45277,3.50619 -7.62712,6.67373 -0.39058,1.05351 0.63611,2.22465 0.47669,3.33687 -0.27242,1.90055 -2.26055,3.3276 -2.38347,5.24364 -0.13836,2.15682 3.08027,4.38212 1.90678,6.19703 -0.69559,1.07579 -2.71623,-0.18438 -3.81356,0.4767 -1.6614,1.0009 -3.15047,2.83633 -3.33687,4.76695 -0.1504,1.55772 2.07124,2.73395 1.90678,4.29025 -0.22713,2.14928 -2.61509,3.44513 -3.81356,5.24365 -2.37252,3.5604 -6.28319,6.70338 -6.67372,10.96398 -0.32593,3.55589 2.47438,6.70043 3.81355,10.01059 0.90769,2.24361 2.60952,4.26648 2.86017,6.67373 0.33563,3.22348 -2.13229,6.30085 -1.90678,9.5339 0.23429,3.35883 2.15521,6.38107 3.33687,9.5339 1.20124,3.20506 3.43467,6.13216 3.81356,9.5339 0.44534,3.99826 -1.30449,7.93973 -1.90678,11.91737 -0.33643,2.22184 0.0168,4.64679 -0.95339,6.67373 -1.40759,2.94081 -6.46085,3.89706 -6.67373,7.15042 -0.0892,1.36398 2.49621,1.97463 2.38347,3.33687 -0.20388,2.46345 -4.29769,2.95992 -5.24364,5.24364 -0.72969,1.76164 -1.2325,4.26543 0,5.72034 0.62475,0.73749 2.52721,-0.43069 2.86017,0.47669 0.93217,2.54031 -4.5783,3.57417 -5.24364,6.19704 -0.95782,3.77585 1.47332,7.65306 2.38347,11.44068 0.84659,3.52315 0.15669,8.07471 2.86017,10.48728 1.55935,1.39156 4.79699,-0.59835 6.19703,0.95339 2.13153,2.36248 -1.09432,6.76684 0.4767,9.5339 1.41433,2.49108 5.41164,2.49045 7.15042,4.76695 1.22001,1.5973 0.58987,4.20194 1.90678,5.72034 2.56078,2.9526 6.57891,5.24364 10.48729,5.24364 2.13184,0 3.61602,-3.20164 5.72034,-2.86016 1.5527,0.25197 1.78909,3.05619 3.33686,3.33686 1.88917,0.34257 3.32895,-2.24121 5.24365,-2.38347 2.30723,-0.17143 5.70917,-0.19616 6.67373,1.90677 0.94851,2.06793 -3.14371,3.9397 -2.86017,6.19704 0.40826,3.25023 3.66898,5.54394 6.19703,7.62712 2.08469,1.71783 4.92769,2.27853 7.15042,3.81356 1.38988,0.95986 2.36375,2.47017 3.81356,3.33686 1.16529,0.69661 2.53377,0.97701 3.81356,1.43009 1.42102,0.50308 3.07387,0.5397 4.29026,1.43008 1.74396,1.27656 3.81356,5.24364 3.81356,5.24364"
     id="path3051"
     style="fill:none;stroke:#000000;stroke-width:1px;stroke-linecap:butt;stroke-linejoin:miter;stroke-opacity:1" />
  <path
     d="m 148.25212,76.271185 7.15042,6.197034 4.76695,3.336864 -1.43008,4.76695 3.33686,8.103813 -2.38347,5.720344 1.43008,3.33686 5.72034,8.58051"
     id="path3053"
     style="fill:none;stroke:#000000;stroke-width:1px;stroke-linecap:butt;stroke-linejoin:miter;stroke-opacity:1" />
  <path
     d="m 75.317797,119.17373 4.290254,-2.86017 4.766949,0 4.766949,-4.29026 9.533899,5.24365 10.963982,0.47669 3.81356,-3.33686 3.33686,6.19703 7.62712,2.38348 7.15043,-0.4767 3.81356,11.44068"
     id="path3055"
     style="fill:none;stroke:#000000;stroke-width:1px;stroke-linecap:butt;stroke-linejoin:miter;stroke-opacity:1" />
  <path
     d="m 105.82627,245.02119 c 0,0 -5.08766,-0.93809 -7.627117,-1.43009 -1.590868,-0.30822 -3.155853,-1.12727 -4.766949,-0.95339 -2.759019,0.29776 -4.887613,3.77954 -7.627119,3.33687 -2.110385,-0.34101 -3.614335,-2.48984 -4.766949,-4.29026 -2.601416,-4.06348 -4.866649,-9.03384 -4.290255,-13.82415 0.332059,-2.75968 2.461124,-5.05749 4.290255,-7.15043 2.678154,-3.06441 5.906327,-5.78216 9.533898,-7.62711 1.614864,-0.82131 3.908228,-0.20576 5.243644,-1.43009 2.371574,-2.1743 0.697672,-7.21693 3.336865,-9.0572 2.085447,-1.45416 5.169917,0.65255 7.627117,0 2.47633,-0.65762 5.07955,-1.80776 6.67373,-3.81356 1.0322,-1.29872 1.59446,-3.11617 1.43008,-4.76695 -0.26766,-2.68797 -3.1584,-4.5298 -3.81355,-7.15042 -0.65515,-2.62062 0.99581,-5.5928 0,-8.10382 -1.3675,-3.44826 -6.14563,-4.70297 -7.62712,-8.10381 -0.95402,-2.18999 -0.22816,-4.77463 -0.4767,-7.15043 -0.1169,-1.11748 -0.832,-2.27094 -0.47669,-3.33686 1.49229,-4.47687 5.43071,-8.87306 10.01059,-10.01059 2.09752,-0.52097 4.41388,3.128 6.19703,1.90678 1.84008,-1.2602 -1.15553,-5.15393 0.4767,-6.67373 1.16292,-1.08282 3.30547,0.62366 4.76695,0 4.85818,-2.07313 6.63319,-8.41677 10.96398,-11.44068 2.27529,-1.58869 4.96417,-4.11759 7.62712,-3.33686 2.74887,0.80592 2.95084,4.93512 4.76695,7.15042 1.56714,1.91161 3.14094,3.9441 5.24364,5.24364 0.85487,0.52834 1.88209,1.18428 2.86017,0.95339 1.74964,-0.41303 2.01583,-3.81356 3.81356,-3.81356 1.12358,0 1.28995,2.12533 2.38348,2.38348 2.44519,0.57723 4.67296,-2.80104 7.15042,-2.38348 2.56988,0.43313 3.96329,3.42445 6.19703,4.76695 1.64563,0.98904 3.41637,1.7941 5.24365,2.38348 2.31332,0.74615 4.73623,1.14743 7.15042,1.43008 4.42179,0.51769 8.97421,1.31031 13.34746,0.4767 2.72596,-0.51961 4.85762,-3.16166 7.62712,-3.33687 2.81007,-0.17777 5.31581,2.77733 8.10381,2.38348 4.10282,-0.57959 7.6659,-3.63912 10.48729,-6.67373 1.59749,-1.71821 3.33686,-6.19704 3.33686,-6.19704"
     id="path3057"
     style="fill:none;stroke:#000000;stroke-width:1px;stroke-linecap:butt;stroke-linejoin:miter;stroke-opacity:1" />
  <path
     d="m 127.75424,248.83474 -7.15043,-0.95339 0,-3.33686 -3.81356,-0.47669 -3.33686,-5.72034 -4.76695,0.47669 -4.29025,-10.96398 0,-7.62712 1.90678,-4.76695 -2.38348,-3.81356 0,-9.0572"
     id="path3059"
     style="fill:none;stroke:#000000;stroke-width:1px;stroke-linecap:butt;stroke-linejoin:miter;stroke-opacity:1" />
  <path
     d="m 132.99788,177.8072 c 0,0 3.83223,4.44264 4.76695,7.15043 0.67602,1.95838 -0.9836,4.7274 0.4767,6.19703 1.34865,1.35727 4.24199,-0.73803 5.72033,0.47669 0.89378,0.7344 -0.12495,2.9181 0.95339,3.33687 2.26097,0.87804 3.77216,-3.75953 6.19704,-3.81356 1.63555,-0.0364 2.7066,1.9731 4.29025,2.38347 1.692,0.43844 3.50427,-0.17223 5.24365,0 3.22513,0.31935 6.29944,1.70259 9.5339,1.90678 2.22581,0.14051 4.5155,0.0855 6.67372,-0.47669 5.43432,-1.41555 10.31263,-4.48283 15.25424,-7.15042 2.13435,-1.15217 5.4203,-1.51582 6.19704,-3.81356 0.70876,-2.09664 -2.36312,-3.98393 -2.38348,-6.19704 -0.0171,-1.85978 2.59524,-3.5159 1.90678,-5.24364 -0.39457,-0.99021 -2.29978,-0.52336 -2.86017,-1.43009 -2.42259,-3.91984 -1.20261,-9.3758 0,-13.82415 0.57611,-2.13098 2.76076,-3.58936 3.33687,-5.72034 0.24882,-0.92035 0,-2.86017 0,-2.86017"
     id="path3061"
     style="fill:none;stroke:#000000;stroke-width:1px;stroke-linecap:butt;stroke-linejoin:miter;stroke-opacity:1" />
  <path
     d="m 492.90254,170.18008 c 0,0 -3.74086,-2.86989 -3.33686,-4.76695 0.19299,-0.9062 1.77918,-0.72774 2.38347,-1.43008 1.9053,-2.21447 0.79271,-6.66809 3.33687,-8.10381 1.82016,-1.02715 4.11313,0.79403 6.19703,0.95339 2.53497,0.19386 5.14237,0.53822 7.62712,0 1.87646,-0.40646 3.62937,-3.42293 5.24364,-2.38348 1.46958,0.94628 -1.18351,3.95741 0,5.24365 1.29557,1.40803 4.02282,-0.40619 5.72034,0.47669 1.10102,0.57264 1.33235,2.2004 2.38348,2.86017 2.21961,1.39319 5.8811,-0.0475 7.62712,1.90678 1.60207,1.79313 0.87977,4.74698 0.95339,7.15042 0.0683,2.2292 0.49354,4.66559 -0.4767,6.67373 -1.1253,2.32908 -3.46299,3.98061 -5.72034,5.24365 -2.01904,1.12969 -4.5738,0.93569 -6.67373,1.90678 -1.56002,0.72142 -3.15278,1.57166 -4.29025,2.86017 -1.41086,1.5982 -1.79014,3.87648 -2.86017,5.72033 -0.86269,1.48656 -2.3621,2.64526 -2.86017,4.29026 -0.87488,2.88952 -0.34806,6.05826 0,9.0572 0.31993,2.75654 0.43724,5.74982 1.90678,8.10382 1.19594,1.91571 4.05963,2.36714 5.24364,4.29025 0.76805,1.24749 0.18209,3.04477 0.95339,4.29025 2.26035,3.64999 5.96354,6.67104 10.0106,8.10382 1.94725,0.68938 4.30478,-0.82849 6.19703,0 2.57519,1.1275 3.67409,4.26942 5.72034,6.19703 3.2877,3.09709 7.0245,5.68051 10.48729,8.58051 3.36939,2.82178 5.71094,7.67043 10.01059,8.58051 1.62299,0.34353 3.23257,-2.0608 4.76695,-1.43009 1.84149,0.75694 1.11038,4.29377 2.86017,5.24365 1.82079,0.98842 4.41337,-1.53066 6.19703,-0.4767 3.30594,1.95346 2.23664,7.5989 4.76695,10.48729 1.97557,2.25514 4.74521,3.94043 7.62712,4.76695 1.98563,0.56947 4.73638,-1.46066 6.19704,0 2.92131,2.92131 0.13748,8.265 0,12.39407 -0.0795,2.38744 -1.58381,5.0337 -0.4767,7.15042 0.85883,1.64202 3.93151,1.20613 4.76695,2.86017 1.51122,2.99197 -1.56782,6.71542 -0.95339,10.01059 0.32565,1.74644 1.74942,3.10741 2.38347,4.76695 0.64661,1.6924 0.74687,3.56569 1.43009,5.24365 0.61694,1.51517 0.8588,3.69718 2.38347,4.29025 1.8732,0.72864 3.80184,-2.50607 5.72034,-1.90678 1.51671,0.47378 2.17727,2.37881 2.86017,3.81356 0.56313,1.18313 0.36013,2.64525 0.95339,3.81356 1.12378,2.2131 2.64751,4.42858 4.76695,5.72034 1.25094,0.76243 3.37359,-0.18935 4.29026,0.95339 0.59656,0.74368 -0.39056,1.99045 0,2.86017 0.78383,1.74547 3.58632,2.03437 4.29025,3.81356 0.64569,1.632 0.0231,3.56123 -0.47669,5.24364 -0.87043,2.92991 -3.88157,5.07479 -4.29026,8.10382 -0.19589,1.45181 1.56757,2.96024 0.95339,4.29025 -1.28141,2.77488 -5.13747,3.55348 -8.10381,4.29025 -1.85055,0.45963 -4.02734,-0.87724 -5.72034,0 -2.93576,1.52118 -6.42263,4.8728 -5.72034,8.10382 0.46887,2.15712 4.39523,1.57133 5.72034,3.33686 1.17983,1.57196 1.81913,3.79377 1.43008,5.72034 -0.31453,1.55754 -1.98761,2.48559 -2.86017,3.81356 -0.70348,1.07065 -1.57797,2.09871 -1.90678,3.33687 -0.44862,1.68933 0.75716,3.66827 0,5.24364 -0.88149,1.83405 -3.88546,1.97951 -4.76695,3.81356 -0.89483,1.8618 0.30716,4.15432 0,6.19703 -0.32137,2.13723 -1.32668,4.11509 -1.90677,6.19704 -0.35169,1.26223 -1.30315,2.5508 -0.95339,3.81356 0.47987,1.7325 2.73097,2.37835 3.81355,3.81356 0.98517,1.30606 2.03419,2.69201 2.38348,4.29025 0.44234,2.02401 -1.30185,4.29666 -0.4767,6.19703 0.81046,1.86653 3.12435,2.61246 4.76695,3.81356 2.31234,1.69083 5.55646,2.3868 7.15043,4.76695 0.90168,1.34641 0.0978,3.39079 0.95339,4.76695 1.37604,2.21323 5.1529,2.37913 6.19703,4.76695 1.40633,3.21614 -2.54266,7.3575 -0.95339,10.48729 0.83899,1.65225 2.92329,3.04658 4.76695,2.86017 2.57356,-0.2602 3.14132,-5.04475 5.72034,-5.24365 0.57122,-0.044 1.43008,0.95339 1.43008,0.95339"
     id="path3063"
     style="fill:none;stroke:#000000;stroke-width:1px;stroke-linecap:butt;stroke-linejoin:miter;stroke-opacity:1" />
  <path
     d="m 891.89619,452.38347 c 0,0 -4.30731,-5.11696 -7.15043,-4.76695 -2.3445,0.28862 -2.88404,3.81725 -4.76695,5.24365 -1.41608,1.07275 -3.04992,1.92749 -4.76694,2.38347 -2.76862,0.73525 -6.30401,-1.26208 -8.58051,0.4767 -0.79865,0.61001 -0.0842,2.35575 -0.95339,2.86017 -2.10232,1.22002 -4.74853,-1.05718 -7.15043,-1.43009 -1.42185,-0.22075 -3.02983,0.21738 -4.29025,-0.47669 -0.89125,-0.49078 -1.05047,-1.83399 -1.90678,-2.38348 -1.65418,-1.06148 -4.27824,-0.0947 -5.72034,-1.43008 -1.47473,-1.36564 -0.22467,-4.62021 -1.90678,-5.72034 -1.46884,-0.96065 -3.72647,1.35903 -5.24364,0.47669 -1.65971,-0.96523 -0.4635,-5.24364 -2.38348,-5.24364 -1.91997,0 -1.21948,3.71674 -2.38347,5.24364 -1.50477,1.97392 -3.24074,4.65629 -5.72034,4.76695 -2.5099,0.11201 -4.11889,-2.87834 -6.19703,-4.29025 -0.94778,-0.64393 -2.10186,-1.04777 -2.86017,-1.90678 -0.94057,-1.06547 -0.64788,-3.15396 -1.90678,-3.81356 -1.99049,-1.04292 -4.92211,-0.45429 -6.67373,0.95339 -1.05824,0.85046 -0.18536,3.27151 -1.43009,3.81356 -2.67837,1.16636 -5.22364,-3.82538 -8.10381,-3.33686 -1.88644,0.31997 -2.3777,3.86976 -4.29026,3.81355 -1.79695,-0.0528 -2.15267,-3.12559 -3.81355,-3.81355 -1.32123,-0.54727 -2.87864,0.22907 -4.29026,0 -0.99198,-0.16098 -1.97,-0.48698 -2.86017,-0.95339 -2.11123,-1.10619 -3.8031,-2.87423 -5.72034,-4.29026 -1.73849,-1.284 -3.27909,-2.91271 -5.24364,-3.81356 -2.52248,-1.15669 -5.46579,-2.76796 -8.10382,-1.90678 -1.39264,0.45463 -2.82139,1.87241 -2.86016,3.33687 -0.069,2.60521 4.84919,3.59221 4.76694,6.19703 -0.10662,3.37654 -3.42201,6.71127 -6.67372,7.62712 -2.56387,0.72212 -5.41468,-3.86671 -7.62712,-2.38348 -3.04707,2.04277 1.75062,8.4849 -0.95339,10.96399 -1.28836,1.18119 -4.00771,-1.23594 -5.24365,0 -1.12358,1.12358 1.07592,3.59765 0,4.76695 -1.29557,1.40803 -4.32821,-0.83595 -5.72034,0.47669 -3.26995,3.08325 2.21669,11.55975 -1.90678,13.34746 -3.55911,1.54303 -5.7425,-7.49445 -9.53389,-6.67373 -3.96855,0.85907 -2.32075,9.27827 -6.19704,10.48729 -2.17188,0.67741 -4.0702,-3.66798 -6.19703,-2.86017 -2.59422,0.98533 -0.88197,6.33317 -3.33687,7.62712 -3.00498,1.58389 -6.73258,-2.79744 -10.01059,-1.90678 -1.63001,0.44289 -2.17859,2.91264 -3.81356,3.33686 -2.20216,0.57139 -4.5279,-2.18599 -6.67373,-1.43008 -3.08967,1.08839 -5.683,4.39193 -6.19703,7.62712 -0.34729,2.18578 3.28556,4.17602 2.38347,6.19703 -1.45545,3.26071 -8.50559,0.57542 -10.01059,3.81356 -1.4191,3.05333 3.95944,6.22497 3.33686,9.5339 -0.27088,1.43971 -1.42704,3.03308 -2.86017,3.33686 -3.61555,0.76638 -6.3166,-4.64886 -10.01059,-4.76695 -1.71051,-0.0547 -3.50757,0.74798 -4.76695,1.90678 -2.09172,1.92466 -3.81356,7.62712 -3.81356,7.62712"
     id="path3065"
     style="fill:none;stroke:#000000;stroke-width:1px;stroke-linecap:butt;stroke-linejoin:miter;stroke-opacity:1" />
  <path
     d="m 766.16967,390.68087 c 0,0 -2.79498,-4.4136 -5.05611,-5.39319 -1.75268,-0.75932 -3.9132,0.58882 -5.73026,0 -3.82706,-1.24015 -5.79886,-6.46744 -9.77515,-7.07855 -3.51184,-0.53973 -6.77595,2.14863 -10.11223,3.37074 -3.40889,1.2487 -6.57407,3.23172 -10.11222,4.04489 -3.0739,0.70648 -6.59201,-0.6852 -9.43808,0.67415 -2.08029,0.9936 -3.3699,3.18671 -4.71904,5.05611 -0.82388,1.1416 -0.99026,2.75042 -2.02245,3.70782 -2.80206,2.59901 -8.13752,1.67568 -10.4493,4.71904 -1.78785,2.35364 -1.89986,5.86017 -1.34829,8.76393 0.58258,3.06702 3.99872,5.05216 4.71903,8.08978 0.8312,3.50527 0.68054,7.44831 -0.67414,10.78637 -1.16862,2.87958 -4.98914,4.16392 -6.06734,7.07856 -0.97455,2.63447 -1.23412,5.90353 0,8.42685 1.12569,2.30163 5.29267,2.2768 6.06734,4.71904 0.81673,2.57485 -2.2109,5.05553 -2.35952,7.75271 -0.10063,1.82629 1.26491,3.58181 1.01122,5.39319 -0.31363,2.23931 -1.7794,4.18593 -3.03367,6.06733 -1.81172,2.71758 -6.41498,4.14953 -6.40441,7.41564 0.004,1.19438 2.08511,1.53416 2.35952,2.69659 0.61361,2.59928 -1.6826,5.1037 -2.02244,7.75271 -0.25735,2.006 0,6.06733 0,6.06733"
     id="path3069"
     style="fill:none;stroke:#000000;stroke-width:1px;stroke-linecap:butt;stroke-linejoin:miter;stroke-opacity:1" />
  <path
     d="m 760.43941,397.75943 -5.39318,0 -6.74149,2.69659 -10.4493,2.02245 -5.05611,2.35952 -5.73026,11.7976 -0.67415,8.42685 -4.04489,10.11223 -8.08978,5.05611 -0.67415,10.11223 -4.04489,5.39318 -0.67415,6.74149"
     id="path3071"
     style="fill:none;stroke:#000000;stroke-width:1px;stroke-linecap:butt;stroke-linejoin:miter;stroke-opacity:1" />
  <path
     d="m 749.65304,408.88288 c 0,0 -4.11303,4.97579 -5.73026,7.75271 -1.67072,2.86875 -3.35573,5.85352 -4.04489,9.101 -0.69974,3.29731 -0.69015,6.8129 0,10.11223 0.40176,1.92068 1.41842,3.67134 2.35952,5.39318 0.38859,0.71096 1.31239,1.21302 1.34829,2.02245 0.0624,1.40646 -1.67458,2.34362 -2.02244,3.70781 -0.11105,0.4355 0.3105,1.02337 0,1.3483 -1.7095,1.78897 -5.31205,-0.96588 -7.41564,0.33708 -1.96686,1.21827 -1.19082,5.2923 -3.37074,6.06733 -2.28043,0.81077 -4.38425,-3.24538 -6.74148,-2.69659 -2.9445,0.68551 -3.68638,4.87841 -6.06734,6.74148 -1.50429,1.17709 -3.20305,2.23333 -5.05611,2.6966 -1.19904,0.29976 -2.50199,-0.27115 -3.70782,0 -4.60929,1.03647 -12.80882,6.06733 -12.80882,6.06733"
     id="path3073"
     style="fill:none;stroke:#000000;stroke-width:1px;stroke-linecap:butt;stroke-linejoin:miter;stroke-opacity:1" />
  <path
     d="m 788.75365,384.95061 -8.08978,5.05611 -0.67415,9.77516 0,6.74148 3.70781,4.04489 -7.07856,8.08978 -0.33707,5.05611 -5.05611,9.43808"
     id="path3075"
     style="fill:none;stroke:#000000;stroke-width:1px;stroke-linecap:butt;stroke-linejoin:miter;stroke-opacity:1" />
  <path
     d="m 810.3264,368.77105 c 0,0 -5.36366,3.80127 -6.06734,6.74148 -0.70416,2.94224 2.17645,5.74414 2.35952,8.76393 0.0962,1.58607 -0.22412,3.19512 -0.67415,4.71904 -0.45563,1.54285 -2.11238,2.77576 -2.02244,4.38197 0.27902,4.98297 6.50042,7.97771 7.7527,12.80882 0.76173,2.93863 -1.06181,6.15303 -0.33707,9.101 0.64878,2.639 3.58607,4.39999 4.04489,7.07856 0.42418,2.47634 -0.89887,4.94375 -1.3483,7.41563 -0.44943,2.47188 -1.12267,4.91338 -1.3483,7.41563 -0.16145,1.79047 0,5.39319 0,5.39319"
     id="path3077"
     style="fill:none;stroke:#000000;stroke-width:1px;stroke-linecap:butt;stroke-linejoin:miter;stroke-opacity:1" />
  <path
     d="m 716.95684,355.96223 -3.03367,4.71904 -1.01122,5.05611 -7.75271,-1.3483 -16.85371,7.75271 -5.73026,3.03367 -5.39319,-6.40441 -5.73026,-1.68537 -10.4493,1.68537 -8.08978,2.35952 -2.69659,1.68537 -4.04489,0 -1.68537,6.06733 -0.67415,7.07856 -2.35952,3.70782 -0.67415,9.43808 -9.101,3.70781 -3.70782,10.78638 -5.73026,4.04489 -1.68537,11.12345 0,10.4493 2.35952,5.73026 1.01122,4.38196 6.40441,3.37075"
     id="path3079"
     style="fill:none;stroke:#000000;stroke-width:1px;stroke-linecap:butt;stroke-linejoin:miter;stroke-opacity:1" />
  <path
     d="m 671.45182,399.4448 c 0,0 2.39515,3.43126 2.35952,5.39319 -0.0611,3.36644 -2.19265,6.54296 -4.38196,9.101 -2.57369,3.00715 -5.99601,5.56469 -9.77516,6.74149 -2.46738,0.76832 -5.17378,0.1657 -7.7527,0 -3.50475,-0.22518 -7.34437,0.29286 -10.4493,-1.3483 -2.39231,-1.2645 -2.78574,-5.34393 -5.39319,-6.06734 -1.81491,-0.50353 -3.53128,1.40123 -5.39319,1.68538 -1.33286,0.20341 -4.04489,0 -4.04489,0"
     id="path3081"
     style="fill:none;stroke:#000000;stroke-width:1px;stroke-linecap:butt;stroke-linejoin:miter;stroke-opacity:1" />
  <path
     d="m 675.83379,414.27607 c 0,0 0.39115,6.77842 -1.3483,9.43807 -1.51892,2.32244 -5.25815,2.28746 -7.07856,4.38197 -2.01313,2.31625 -3.34068,5.38006 -3.70781,8.42685 -0.23204,1.92567 1.67757,3.90872 1.01122,5.73027 -0.60296,1.64826 -3.3425,1.76233 -4.04489,3.37074 -1.71107,3.9182 2.12582,8.78729 0.67415,12.80882 -1.34985,3.73946 -4.44792,7.16941 -8.08979,8.76393 -1.54388,0.67596 -3.65683,-0.93941 -5.05611,0 -2.21737,1.48863 -2.51838,4.79509 -3.03367,7.41563 -0.78043,3.96889 0.52556,8.12407 0,12.13467 -0.22664,1.72948 -1.34829,5.05611 -1.34829,5.05611"
     id="path3083"
     style="fill:none;stroke:#000000;stroke-width:1px;stroke-linecap:butt;stroke-linejoin:miter;stroke-opacity:1" />
  <path
     d="m 671.45182,314.83918 0,4.38196 4.04489,9.43808 3.03367,9.77515 0.67415,9.101 -3.37074,8.76393 0.67414,5.73026 -3.70781,4.38197"
     id="path3085"
     style="fill:none;stroke:#000000;stroke-width:1px;stroke-linecap:butt;stroke-linejoin:miter;stroke-opacity:1" />
  <path
     d="m 744.59692,363.04079 c 0,0 -6.89044,1.09436 -10.11222,2.35952 -2.52953,0.99332 -4.45202,3.34737 -7.07856,4.04489 -2.28048,0.60561 -4.7236,-0.14661 -7.07856,0 -0.90411,0.0563 -2.07944,-0.32604 -2.69659,0.33707 -1.45642,1.56488 -1.3611,4.52787 -0.33708,6.40441 0.43392,0.79517 2.2857,0.44545 2.35952,1.3483 0.18877,2.30861 -4.34305,2.31736 -5.39318,4.38196 -0.96917,1.90544 -0.33708,6.40441 -0.33708,6.40441"
     id="path3087"
     style="fill:none;stroke:#000000;stroke-width:1px;stroke-linecap:butt;stroke-linejoin:miter;stroke-opacity:1" />
  <path
     d="m 477.97123,275.73857 c 0,0 3.68215,1.36969 5.05611,2.69659 1.77438,1.71362 2.04876,4.57891 3.70782,6.40441 1.30012,1.43055 3.13385,2.2644 4.71903,3.37074 2.45334,1.71225 5.36237,2.88017 7.41564,5.05612 2.69782,2.85901 3.51028,7.12665 6.06733,10.11222 1.71252,1.99951 4.47129,2.96246 6.06734,5.05612 1.64614,2.15936 1.74369,5.24185 3.37074,7.41563 1.95714,2.61479 5.81607,3.55678 7.41563,6.40441 1.67356,2.97938 0.56299,6.88456 1.68537,10.11222 1.22228,3.51496 4.46499,6.17136 5.39319,9.77516 0.78469,3.04659 -1.17157,6.51833 0,9.43807 1.33172,3.31888 4.88924,5.22174 7.41563,7.75271 2.75085,2.75584 4.72431,6.8844 8.42686,8.08978 2.37221,0.77228 5.074,-1.87177 7.41563,-1.01122 4.1076,1.50955 5.40059,6.97532 8.76393,9.77515 1.82162,1.51642 4.22821,2.21268 6.06734,3.70782 3.94738,3.20906 6.27502,8.21565 10.4493,11.12345 2.60276,1.81308 6.02561,2.10682 8.76393,3.70781 2.69678,1.5767 5.4063,3.33836 7.41563,5.73026 1.55172,1.84716 3.37074,6.40441 3.37074,6.40441"
     id="path3089"
     style="fill:none;stroke:#000000;stroke-width:1px;stroke-linecap:butt;stroke-linejoin:miter;stroke-opacity:1" />
  <path
     d="m 532.24017,312.81673 c 0,0 4.24149,3.61873 5.39319,6.06734 1.25799,2.6746 -0.31896,6.32338 1.3483,8.76393 1.39147,2.03685 4.18203,2.63732 6.40441,3.70781 2.50011,1.20428 5.88552,0.98075 7.7527,3.03367 2.75189,3.02562 0.80337,8.61392 3.37075,11.7976 2.24041,2.77822 6.07887,3.85041 9.43807,5.05611 4.31387,1.54835 9.40688,0.60079 13.48297,2.69659 6.43323,3.30778 11.43549,9.09488 15.84249,14.83127 2.17434,2.83023 2.21753,7.27465 5.05611,9.43808 2.01611,1.53658 7.41564,1.68537 7.41564,1.68537"
     id="path3091"
     style="fill:none;stroke:#000000;stroke-width:1px;stroke-linecap:butt;stroke-linejoin:miter;stroke-opacity:1" />
  <path
     d="m 552.12755,281.46883 -3.03367,7.75271 0,10.78637 7.07856,7.07856 6.40441,9.101 3.70782,9.77515 2.35952,5.73027 7.41563,3.70781 2.69659,6.40441 7.75271,2.02245 10.78638,10.11222 1.68537,5.05612 0.67415,3.37074 -4.71904,5.73026"
     id="path3093"
     style="fill:none;stroke:#000000;stroke-width:1px;stroke-linecap:butt;stroke-linejoin:miter;stroke-opacity:1" />
  <path
     d="m 657.63178,290.56983 c 0,0 3.62276,7.06997 2.02244,10.11223 -0.79673,1.51461 -3.01847,1.83028 -4.71903,2.02244 -1.24826,0.14105 -2.6652,-1.37484 -3.70782,-0.67414 -1.81068,1.21688 -0.75166,4.30598 -1.3483,6.40441 -1.17615,4.13658 -4.16367,7.83967 -4.38196,12.13467 -0.14109,2.776 1.71648,5.32709 2.02244,8.08978 0.50722,4.58005 0.69812,9.32977 -0.33707,13.82004 -0.97137,4.21344 -1.7552,9.46058 -5.39319,11.7976 -1.32346,0.85018 -3.37443,-0.81634 -4.71904,0 -2.7063,1.64305 -2.05628,6.27861 -4.38196,8.42685 -2.33007,2.1523 -5.61022,3.36765 -8.76393,3.70782 -1.81851,0.19615 -3.58663,-1.2972 -5.39319,-1.01122 -1.39053,0.22012 -2.30483,1.90565 -3.70782,2.02244 -3.08072,0.25644 -6.14362,-1.39336 -8.76392,-3.03367 -0.53874,-0.33725 -1.3483,-1.34829 -1.3483,-1.34829"
     id="path3095"
     style="fill:none;stroke:#000000;stroke-width:1px;stroke-linecap:butt;stroke-linejoin:miter;stroke-opacity:1" />
  <path
     d="m 682.38877,611.59958 c 0,0 -0.74875,4.86302 -2.62182,5.95868 -3.51425,2.05567 -8.11981,-1.7276 -12.15572,-1.19174 -3.11567,0.41368 -6.14692,1.68179 -8.81886,3.33687 -3.77567,2.33877 -7.74557,5.10522 -9.77224,9.0572 -2.04604,3.98974 -1.96955,8.87381 -1.66843,13.34746 0.18766,2.788 1.25673,5.45449 2.14512,8.10381 0.60041,1.7905 2.21624,3.3565 2.14513,5.24365 -0.1271,3.37303 -3.82311,5.75633 -4.5286,9.0572 -0.78116,3.65494 1.51176,7.61103 0.47669,11.20233 -0.77511,2.68935 -3.0481,4.70325 -4.76695,6.91208 -1.03734,1.33305 -2.71127,2.24457 -3.33686,3.81356 -0.73622,1.84645 0.87102,4.30922 -0.23835,5.95868 -1.0715,1.59317 -5.24364,2.38348 -5.24364,2.38348"
     id="path3097"
     style="fill:none;stroke:#000000;stroke-width:1px;stroke-linecap:butt;stroke-linejoin:miter;stroke-opacity:1" />
  <path
     d="m 550.58263,618.98835 c 0,0 4.43766,-0.78944 6.67373,-0.71505 3.22448,0.10727 6.31292,1.48385 9.5339,1.66844 2.70151,0.15482 5.89659,-2.04205 8.10381,-0.4767 1.88718,1.33838 1.82905,4.36144 1.90678,6.67373 0.0764,2.27379 -1.46863,4.39898 -1.43009,6.67373 0.0499,2.94777 1.33236,5.74656 2.14513,8.58051 0.85196,2.9706 2.25613,5.7881 2.86017,8.81885 0.38947,1.95414 -0.59943,4.28169 0.4767,5.95869 1.67121,2.60435 5.29128,3.23817 8.10381,4.5286 3.15258,1.44645 7.19592,1.25281 9.77224,3.57521 2.82395,2.54562 3.82306,6.63547 5.0053,10.24894 1.25511,3.8362 2.14513,7.88108 2.14513,11.91738 0,4.0363 -2.60603,7.90747 -2.14513,11.91737 0.57299,4.98507 3.53754,9.42901 5.95869,13.82415 1.76505,3.20412 4.65039,5.74214 6.19703,9.05721 0.87207,1.86919 2.07109,3.93575 1.66843,5.95868 -0.55229,2.77467 -4.69296,3.89874 -5.24364,6.67373 -0.51407,2.5905 1.6401,5.03484 2.14513,7.62712 0.55031,2.82466 -0.99921,6.46652 0.95339,8.58051 1.42726,1.54523 5.36426,-0.73992 6.19703,1.19174 0.8202,1.90251 -3.005,3.19861 -3.33686,5.24364 -0.41978,2.58678 1.49621,5.03886 1.90678,7.62712 0.53653,3.38233 -0.37335,7.00188 0.71504,10.24894 1.29565,3.86539 5.67688,6.29594 6.67373,10.24894 0.46786,1.85531 -1.3381,4.01182 -0.4767,5.72034 2.31277,4.58718 9.41474,4.53411 13.10911,8.10381 0.82401,0.7962 1.87454,1.71479 1.90678,2.86017 0.0882,3.13273 -4.76695,8.10382 -4.76695,8.10382"
     id="path3099"
     style="fill:none;stroke:#000000;stroke-width:1px;stroke-linecap:butt;stroke-linejoin:miter;stroke-opacity:1" />
  <path
     d="m 369.20021,651.8803 8.10382,0.71504 7.38877,-5.24365 6.91207,2.38348 8.34216,1.19174 6.67373,5.24364 9.29555,-0.95339 9.5339,-6.67373 4.05191,-2.62182 2.86017,0 3.09852,-6.67373 4.76695,-2.38347"
     id="path3101"
     style="fill:none;stroke:#000000;stroke-width:1px;stroke-linecap:butt;stroke-linejoin:miter;stroke-opacity:1" />
  <path
     d="m 300.3178,609.45445 c 0,0 5.87908,2.83536 9.0572,3.33686 3.92704,0.61967 8.0028,0.21741 11.91737,-0.47669 2.30078,-0.40796 4.531,-1.21308 6.67373,-2.14513 2.83761,-1.23431 5.36859,-3.08151 8.10382,-4.5286 2.04141,-1.08002 3.90038,-3.34183 6.19703,-3.09852 3.03535,0.32157 4.97363,3.58063 7.15042,5.72034 2.57536,2.53149 4.15257,6.01277 6.91208,8.34216 1.82234,1.53829 3.85546,3.1232 6.19703,3.57521 2.75803,0.5324 5.53638,-1.05828 8.34216,-1.19173 5.08458,-0.24184 10.17466,0.38445 15.25424,0.71504 1.90935,0.12426 3.94731,-0.24262 5.72034,0.47669 2.66769,1.08227 3.93049,4.60876 6.67373,5.482 3.18775,1.01474 7.00124,-2.17631 10.01059,-0.71505 2.67604,1.29941 2.48824,5.80319 5.0053,7.38877 1.35951,0.8564 3.30746,0.0431 4.76695,0.71505 1.43247,0.65955 2.03262,2.77081 3.57521,3.09851 1.86839,0.39691 3.65739,-2.23346 5.48199,-1.66843 1.45787,0.45146 1.34951,3.35822 2.86017,3.57521 1.9199,0.27578 2.84579,-3.07006 4.76695,-3.33686 1.91632,-0.26613 4.21985,0.44045 5.48199,1.90678 0.84373,0.98023 -0.11971,2.82568 0.71504,3.81356 1.03831,1.22878 3.41818,0.50441 4.52861,1.66843 1.09268,1.14541 -0.11234,4.17242 1.43008,4.5286 2.1355,0.49313 2.36605,-4.41068 4.5286,-4.76695 1.68316,-0.27729 2.87256,1.97429 4.5286,2.38348 0.92555,0.2287 2.01568,-0.44247 2.86017,0 1.11272,0.58301 0.9157,2.84058 2.14513,3.09851 1.1869,0.24901 1.89405,-2.04819 3.09852,-1.90678 0.89273,0.10481 1.00826,1.93172 1.90678,1.90678 2.02478,-0.0562 2.04999,-4.21995 4.0519,-4.5286 2.46437,-0.37995 4.01622,3.20932 6.43539,3.81356 1.69753,0.424 3.56435,-0.72965 5.24364,-0.23835 1.58672,0.46421 2.47614,2.36004 4.05191,2.86017 1.36308,0.43262 3.03944,0.69326 4.29025,0 1.96669,-1.09003 1.57822,-4.68686 3.57521,-5.72033 2.47364,-1.28014 5.56776,0.7224 8.34216,0.47669 1.70839,-0.1513 3.29789,-1.35367 5.0053,-1.19174 1.73467,0.16451 3.04568,1.87424 4.76695,2.14513 0.7107,0.11185 1.47748,0.0297 2.14513,-0.23835 1.57789,-0.63344 2.3633,-2.8995 4.0519,-3.09851 1.55421,-0.18317 3.03044,0.97836 4.29026,1.90678 1.35976,1.00207 1.97942,2.80833 3.33686,3.81355 1.40031,1.03696 3.24236,1.30146 4.76695,2.14513 1.50385,0.83219 2.70234,2.20243 4.29026,2.86017 1.4971,0.62012 3.69227,-0.25943 4.76695,0.95339 0.687,0.77531 -0.52172,2.39468 0.23834,3.09852 1.98198,1.83538 5.43743,0.4327 8.10382,0 1.23998,-0.20122 2.33704,-1.40383 3.57521,-1.19174 1.78571,0.30588 2.5766,2.74889 4.29025,3.33686 0.60119,0.20627 1.38694,-0.36571 1.90678,0 2.69256,1.89423 3.44263,6.00515 3.33687,9.29556 -0.0834,2.59629 -2.1378,4.73697 -3.09852,7.15042 -0.34393,0.86399 -0.8207,1.70141 -0.95339,2.62182 -0.18174,1.26063 -0.22054,2.62543 0.23835,3.81356 0.54987,1.42367 2.38174,2.12597 2.86017,3.57521 0.67293,2.03839 -0.86167,4.38127 -0.23835,6.43538 1.33827,4.41016 6.259,6.97893 8.10381,11.20233 0.97297,2.22745 0.52182,4.89582 1.43009,7.15043 1.26825,3.14821 3.37183,5.92214 5.48199,8.58051 2.8992,3.6524 6.21794,6.99193 9.77224,10.01059 2.21756,1.88337 4.70174,3.43414 7.15043,5.0053 2.2478,1.44226 4.88809,2.30942 6.91207,4.0519 2.01231,1.73243 2.50824,5.29404 5.0053,6.19704 3.42871,1.23991 10.72564,-2.14513 10.72564,-2.14513"
     id="path3103"
     style="fill:none;stroke:#000000;stroke-width:1px;stroke-linecap:butt;stroke-linejoin:miter;stroke-opacity:1" />
  <path
     d="m 603.73411,634.24258 5.24365,8.34217 1.43008,5.95868 3.81356,5.95869 2.14513,2.86017 -4.5286,7.38877 2.62182,5.72034 0,6.19703 -2.86017,2.86017 -3.33687,-0.47669 -2.38347,7.62711"
     id="path3105"
     style="fill:none;stroke:#000000;stroke-width:1px;stroke-linecap:butt;stroke-linejoin:miter;stroke-opacity:1" />
  <path
     d="m 494.57098,663.79767 c 0,0 5.45401,0.13863 8.10381,0.71504 3.95322,0.85995 7.45346,3.36669 11.44068,4.05191 1.72263,0.29604 3.55431,0.44862 5.24364,0 1.85724,-0.49322 3.0976,-2.62932 5.0053,-2.86017 1.72263,-0.20845 3.52118,0.53102 5.00529,1.43008 1.87457,1.13559 2.39113,4.28242 4.52861,4.76695 2.82043,0.63935 5.21331,-3.00557 8.10381,-3.09851 2.41118,-0.0775 4.54167,2.59341 6.91208,2.14512 1.49959,-0.2836 2.0499,-2.8091 3.57521,-2.86017 2.22475,-0.0745 3.61288,2.60465 5.48199,3.81356 0.38899,0.25159 1.19174,0.71504 1.19174,0.71504"
     id="path3107"
     style="fill:none;stroke:#000000;stroke-width:1px;stroke-linecap:butt;stroke-linejoin:miter;stroke-opacity:1" />
  <path
     d="m 524.60276,621.61017 -2.86017,3.57521 0.95339,5.24364 -2.62183,1.90678 1.66844,3.09852 4.29025,1.90678 2.14513,4.76695 8.58051,0.71504 4.29025,4.5286 4.29025,1.19174 4.52861,1.90678 6.43538,4.76695 2.86017,5.48199"
     id="path3109"
     style="fill:none;stroke:#000000;stroke-width:1px;stroke-linecap:butt;stroke-linejoin:miter;stroke-opacity:1" />
  <path
     d="m 365.38665,588.95657 8.81886,0 3.57521,3.81356 6.43538,-0.95339 4.29026,3.81356 6.91207,-1.66844 8.10382,3.33687 2.86017,7.38877 4.0519,5.95869 3.09852,1.90678 1.19174,9.77224 -1.43009,5.48199 1.90678,1.19174 0,3.57521"
     id="path3111"
     style="fill:none;stroke:#000000;stroke-width:1px;stroke-linecap:butt;stroke-linejoin:miter;stroke-opacity:1" />
  <path
     d="m 373.72881,578.46928 c 0,0 4.16816,0.89611 6.19704,0.47669 1.67052,-0.34534 2.84585,-2.10372 4.5286,-2.38347 2.53838,-0.422 5.39741,-0.0927 7.62712,1.19174 1.86004,1.07151 2.0787,4.16011 4.05191,5.00529 2.71104,1.16121 5.89737,-1.1189 8.81885,-0.71504 2.9384,0.40619 6.00993,1.26553 8.34216,3.09852 2.78935,2.19226 4.04272,5.83296 5.95869,8.81885 1.1553,1.80045 1.48804,4.40581 3.33686,5.482 2.26693,1.31957 5.45759,-0.80204 7.86547,0.23834 0.92828,0.40108 1.20233,1.77947 2.14513,2.14513 3.26257,1.26538 7.15625,-1.54899 10.48728,-0.4767 1.83075,0.58933 3.14734,2.23693 4.52861,3.57522 1.41733,1.37323 2.27496,3.29275 3.81356,4.5286 1.46842,1.17948 3.20406,2.07137 5.00529,2.62182 2.0641,0.63078 4.6163,-0.44656 6.43538,0.71504 2.58388,1.64997 3.25461,5.1987 4.76695,7.86547 0.75388,1.32935 1.60821,2.6211 2.14513,4.05191 0.97496,2.59813 0.0142,6.07426 1.90678,8.10381 1.64526,1.76435 5.08412,0.57084 6.91208,2.14513 1.9386,1.66959 2.76635,4.41803 3.33686,6.91207 0.35433,1.54897 0,4.76695 0,4.76695"
     id="path3113"
     style="fill:none;stroke:#000000;stroke-width:1px;stroke-linecap:butt;stroke-linejoin:miter;stroke-opacity:1" />
  <path
     d="m 258.36864,530.08475 c 0,0 1.43589,4.50992 2.38348,6.67372 1.51109,3.45056 3.21825,6.83451 5.24364,10.0106 1.82841,2.86719 4.98381,4.92702 6.19704,8.10381 1.4783,3.87088 1.00083,8.25078 0.95339,12.39407 -0.0366,3.19361 -1.81118,6.45743 -0.95339,9.5339 1.06691,3.8265 5.89422,5.7653 7.15042,9.5339 0.55273,1.65818 -1.37162,4.16025 0,5.24364 2.69176,2.12611 6.58162,-2.47318 10.01059,-2.38348 2.81472,0.0736 5.34114,2.92726 8.10382,2.38348 1.99658,-0.39299 2.81697,-3.23188 4.76695,-3.81356 3.2121,-0.95816 6.76947,1.80827 10.01059,0.95339 3.75092,-0.98934 5.71399,-5.99809 9.5339,-6.67373 2.42906,-0.42963 4.94854,0.79474 7.15042,1.90678 1.81639,0.91735 2.73216,3.8339 4.76695,3.81356 1.24097,-0.0124 1.69326,-1.96099 2.86017,-2.38347 1.34467,-0.48684 3.08564,0.77075 4.29025,0 1.91638,-1.22616 0.94379,-4.97088 2.86017,-6.19704 2.27538,-1.45586 5.75317,1.33091 8.10382,0 3.22506,-1.826 2.49528,-7.7079 5.72034,-9.5339 4.00992,-2.27038 9.3833,-1.23004 13.82415,0 1.78582,0.49464 2.98113,2.36553 4.76695,2.86017 3.52205,0.97555 7.38674,0.74828 10.96398,0 2.71625,-0.56818 4.96417,-4.11759 7.62712,-3.33686 1.64932,0.48355 1.14624,4.16163 2.86017,4.29025 2.35557,0.17678 2.46123,-4.73023 4.76695,-5.24364 2.0163,-0.44897 3.8176,1.57936 5.72034,2.38347 1.11468,0.47107 2.15434,1.68714 3.33686,1.43009 2.30829,-0.50176 2.40477,-5.23467 4.76695,-5.24365 2.81118,-0.0107 3.92882,4.03064 5.72034,6.19704 2.89618,3.50222 4.90155,7.73925 8.10381,10.96398 2.79911,2.81876 6.44794,4.64897 9.5339,7.15042 1.31217,1.06363 2.24628,2.70701 3.81356,3.33687 3.24698,1.3049 7.53524,-1.4024 10.48729,0.47669 3.17776,2.02277 2.82036,7.1266 5.24364,10.0106 1.67653,1.99528 3.72972,3.92776 6.19704,4.76695 2.10609,0.71633 4.50094,-0.47722 6.67373,0 2.22211,0.48806 3.94362,3.17338 6.19703,2.86017 2.90204,-0.40337 4.18137,-4.17998 6.67373,-5.72034 2.78654,-1.72218 6.01347,-2.60263 9.0572,-3.81356 2.52292,-1.00373 4.99742,-3.5364 7.62712,-2.86017 1.41881,0.36485 1.4049,3.50516 2.86017,3.33686 4.80071,-0.5552 3.68206,-9.07538 6.67373,-12.87076 1.9525,-2.47704 3.99838,-6.30946 7.15042,-6.19703 3.14402,0.11214 3.8533,5.27994 6.67373,6.67372 2.15571,1.06529 4.76123,1.22479 7.15043,0.95339 2.6979,-0.30647 5.13821,-1.77484 7.62711,-2.86017 3.25688,-1.42023 6.00271,-5.16067 9.5339,-4.76694 2.24446,0.25026 3.0399,3.79658 5.24365,4.29025 2.55724,0.57286 5.12085,-2.67246 7.62712,-1.90678 2.04448,0.6246 2.70209,3.33595 4.29025,4.76695 1.60561,1.44672 3.24776,2.98444 5.24364,3.81356 3.71517,1.54335 8.473,-0.17184 11.91738,1.90678 2.04067,1.23151 3.2855,3.55899 4.29025,5.72034 0.89366,1.9224 0.14068,4.51427 1.43009,6.19703 1.64297,2.14418 5.5922,1.60702 7.15042,3.81356 1.85371,2.62497 -0.19258,6.76015 1.43008,9.5339 1.82965,3.12757 5.64102,4.55507 8.58051,6.67373 2.32387,1.67495 4.62198,3.42056 7.15043,4.76695 2.57852,1.37305 5.38797,2.26064 8.10381,3.33686 1.65982,0.65775 5.0053,1.90678 5.0053,1.90678"
     id="path3115"
     style="fill:none;stroke:#000000;stroke-width:1px;stroke-linecap:butt;stroke-linejoin:miter;stroke-opacity:1" />
  <path
     d="m 283.15678,543.9089 6.43538,3.57521 8.10382,3.57521 3.57521,4.05191 6.67373,1.19174 6.43538,5.48199 5.24364,3.33686 2.14513,8.81886 1.43008,2.38347 -0.95339,5.95869"
     id="path3117"
     style="fill:none;stroke:#000000;stroke-width:1px;stroke-linecap:butt;stroke-linejoin:miter;stroke-opacity:1" />
  <path
     d="m 292.92903,539.3803 7.62711,0.47669 2.38348,2.14513 5.72034,-1.19174 5.00529,3.09852 3.57522,2.86017 6.19703,-2.38348 10.96398,5.72034 6.67373,-2.14513 4.29026,-2.38347 2.86017,-5.0053 4.29025,-1.90678 3.09852,4.76695 5.72034,-3.09851 6.67373,-4.05191 11.20233,2.62182 11.44067,2.38348 8.81886,6.43538 6.19703,4.0519 6.19704,3.33687 5.95868,6.19703 6.67373,4.76695 3.33687,8.58051 5.48199,5.72034 13.10911,6.19703 7.38877,0.23835 5.48199,-1.90678 5.24365,4.05191 6.19703,1.90678 7.86547,-1.19174 7.62711,4.5286 5.72034,-1.19174 8.34216,-3.09851 7.38878,1.90678 2.62182,0"
     id="path3119"
     style="fill:none;stroke:#000000;stroke-width:1px;stroke-linecap:butt;stroke-linejoin:miter;stroke-opacity:1" />
  <path
     d="m 291.49894,535.56674 c 0,0 3.2987,-3.42215 5.48199,-4.05191 3.06205,-0.88324 6.35053,0.56517 9.5339,0.71504 4.12755,0.19432 8.26302,0.14427 12.39407,0.23835 3.01933,0.0688 6.06998,0.68286 9.0572,0.23835 2.23654,-0.33281 4.36314,-1.24033 6.43538,-2.14513 2.57427,-1.12399 5.14161,-2.36654 7.38877,-4.05191 2.42694,-1.8202 4.08933,-4.51207 6.43539,-6.43538 1.32918,-1.08967 2.60877,-2.50418 4.29025,-2.86017 2.28732,-0.48426 4.86518,0.0619 6.91208,1.19174 1.87157,1.03306 2.81889,3.21611 4.29025,4.76695 1.70133,1.79323 3.23836,3.79831 5.24365,5.24364 3.17064,2.28527 6.66989,4.40521 10.48728,5.24365 2.4844,0.54567 5.14838,0.33244 7.62712,-0.23835 2.46054,-0.5666 4.39293,-2.92775 6.91208,-3.09852 1.40462,-0.0952 2.80701,0.53428 4.05191,1.19174 1.99698,1.05465 3.44779,2.92089 5.24364,4.29025 2.40159,1.83124 5.06646,3.31285 7.38877,5.24365 2.80825,2.33481 4.73401,5.74787 7.86547,7.62712 2.00357,1.20238 4.7367,0.83825 6.67373,2.14512 2.05757,1.38819 2.83457,4.16258 4.76694,5.72034 1.60463,1.29355 3.89615,1.54367 5.482,2.86017 2.17678,1.80706 3.52086,4.42966 5.24364,6.67373 1.45141,1.89059 2.29724,4.4131 4.29025,5.72034 1.43411,0.94065 3.32797,1.54955 5.0053,1.19174 2.93726,-0.62658 4.30626,-4.51719 7.15042,-5.48199 1.65524,-0.56149 3.62882,-0.66889 5.24365,0 1.55708,0.64496 1.88984,3.57521 3.57521,3.57521 2.47188,0 2.99791,-4.21076 5.24364,-5.24365 1.88224,-0.86571 4.37486,0.50918 6.19704,-0.47669 1.14607,-0.62007 1.22668,-2.49867 2.38347,-3.09852 1.6942,-0.87852 3.83366,0.049 5.72034,-0.23835 1.21932,-0.18568 2.35549,-1.13648 3.57521,-0.95339 1.48244,0.22253 3.08687,1.07235 3.81356,2.38348 0.69326,1.25081 -0.59402,2.98937 0,4.29025 0.65505,1.43454 2.09765,2.54734 3.57522,3.09852 1.33989,0.49982 3.02938,-0.6748 4.29025,0 1.26281,0.67584 1.50485,2.44407 2.38347,3.57521 0.65569,0.84414 1.08291,2.26438 2.14513,2.38348 1.64294,0.18422 2.41873,-2.60349 4.05191,-2.86017 1.31566,-0.20678 3.04396,0.10479 3.81356,1.19173 1.28632,1.81671 -0.19862,4.44809 -0.23835,6.67373 -0.0227,1.27098 -0.48646,2.63914 0,3.81356 0.25798,0.62283 1.43008,1.43009 1.43008,1.43009"
     id="path3121"
     style="fill:none;stroke:#000000;stroke-width:1px;stroke-linecap:butt;stroke-linejoin:miter;stroke-opacity:1" />
  <path
     d="m 404.47564,527.46292 c 0,0 4.82849,0.33718 6.91207,1.43009 2.13984,1.12242 3.62835,3.20819 5.24365,5.00529 1.74216,1.93824 2.4289,5.04578 4.76695,6.19704 1.49681,0.73703 3.3388,-0.0804 5.00529,0 2.47155,0.11931 5.00571,0.0488 7.38877,0.71504 2.29291,0.641 4.20704,2.26018 6.43539,3.09852 1.38917,0.52263 2.81962,0.99127 4.29025,1.19173 1.65315,0.22534 3.38606,0.40218 5.0053,0 1.48317,-0.36838 2.66516,-1.50291 4.0519,-2.14512 1.94118,-0.89898 3.83792,-2.66397 5.95869,-2.38348 1.96908,0.26043 3.66827,1.92052 4.76695,3.57522 0.54359,0.8187 -0.0326,2.22236 0.71504,2.86016 1.39545,1.19043 4.0712,-0.69551 5.48199,0.4767 1.14159,0.94853 0.10947,3.27456 1.19174,4.29025 1.12485,1.05565 3.47416,-0.17259 4.5286,0.95339 1.15202,1.23018 -0.71862,4.11925 0.71504,5.0053 1.28231,0.79251 2.86017,-1.90678 4.29026,-1.43008 1.19174,0.39725 0.94924,2.71396 2.14513,3.09851 1.12439,0.36156 2.28638,-1.73161 3.33686,-1.19173 1.02887,0.52878 0.95339,3.33686 0.95339,3.33686"
     id="path3123"
     style="fill:none;stroke:#000000;stroke-width:1px;stroke-linecap:butt;stroke-linejoin:miter;stroke-opacity:1" />
  <path
     d="m 255.27013,523.17267 c 0,0 3.92753,1.30953 5.95868,1.66843 2.04018,0.36049 4.16118,0.86084 6.19704,0.4767 2.5141,-0.47438 4.38285,-2.95115 6.91207,-3.33687 2.14376,-0.32694 4.30132,1.33852 6.43539,0.95339 2.5896,-0.46733 4.95332,-2.05636 6.91207,-3.81356 2.67437,-2.39919 4.76831,-5.52232 6.19704,-8.81885 0.77453,-1.7871 0.58642,-3.86907 1.19173,-5.72034 0.29834,-0.91245 0.40235,-2.07553 1.19174,-2.62183 0.98213,-0.67968 2.64614,0.51224 3.57521,-0.23834 2.24959,-1.81741 1.19153,-5.70723 2.38348,-8.34216 0.54499,-1.20476 1.00625,-2.66497 2.14512,-3.33687 3.08609,-1.82071 7.14581,-0.86921 10.72564,-0.71504 3.13207,0.13489 6.20299,0.91615 9.29555,1.43008 4.45839,0.74091 9.07444,0.91125 13.34746,2.38348 2.88976,0.99564 5.35504,2.95375 8.10381,4.29025 1.40742,0.68431 2.73116,1.77139 4.29026,1.90678 3.91619,0.34008 7.5392,-2.37988 11.44067,-2.86017 1.89249,-0.23298 3.86063,-0.42105 5.72034,0 3.77789,0.85533 6.96456,3.39458 10.48729,5.0053 2.52374,1.15395 4.97287,2.52704 7.62712,3.33686 3.39842,1.03687 6.94108,1.686 10.48729,1.90678 1.42952,0.089 3.10397,0.56427 4.29025,-0.23834 3.26771,-2.21086 3.20053,-7.21728 5.0053,-10.72564 1.62736,-3.16348 2.43083,-7.11748 5.24364,-9.29555 2.92559,-2.2654 7.03214,-3.08187 10.72564,-2.86017 2.98955,0.17945 5.64133,2.0426 8.34216,3.33687 4.52343,2.16768 8.91937,4.63081 13.10911,7.38877 3.504,2.30657 7.65808,4.15378 10.01059,7.62711 0.83234,1.22889 0.64205,2.91157 1.19174,4.29026 1.63219,4.09371 4.12723,7.78821 6.19703,11.67902 2.53732,4.76964 5.77193,9.22682 7.62712,14.30085 0.78124,2.13674 1.88167,4.44392 1.43009,6.67373 -0.38499,1.90101 -2.68319,2.94082 -3.33687,4.76695 -0.34911,0.97529 -0.23834,3.09852 -0.23834,3.09852"
     id="path3125"
     style="fill:none;stroke:#000000;stroke-width:1px;stroke-linecap:butt;stroke-linejoin:miter;stroke-opacity:1" />
  <path
     d="m 225.71504,439.75106 c 0,0 2.85515,7.69615 4.5286,11.44068 1.44971,3.24387 4.03947,6.05609 4.76695,9.53389 0.63525,3.03686 -1.31313,6.30784 -0.47669,9.29556 0.64755,2.31301 1.82337,5.06263 4.05191,5.95868 2.48667,0.99984 5.26062,-1.0375 7.86546,-1.66843 1.76081,-0.42649 3.47396,-1.81807 5.24365,-1.43008 3.13992,0.6884 4.73142,4.3883 7.38877,6.19703 2.61563,1.78033 5.28569,3.71064 8.34216,4.5286 2.99417,0.80129 6.24747,-0.32407 9.29555,0.23835 4.22554,0.77968 8.25153,2.4957 12.15572,4.29025 2.74886,1.2635 4.87839,4.04902 7.86547,4.5286 2.32307,0.37297 6.91207,-1.43008 6.91207,-1.43008"
     id="path3127"
     style="fill:none;stroke:#000000;stroke-width:1px;stroke-linecap:butt;stroke-linejoin:miter;stroke-opacity:1" />
  <path
     d="m 233.34216,445.23305 c 0,0 3.39447,3.44989 5.24365,5.0053 1.73894,1.46269 4.19845,2.17684 5.48199,4.0519 0.51169,0.7475 0.005,2.05965 0.71504,2.62183 1.80772,1.43073 5.01039,1.54158 6.91208,0.23834 3.19184,-2.18738 2.01173,-7.53968 3.81356,-10.96398 1.56131,-2.9672 4.67714,-5.00549 5.95868,-8.10381 1.01355,-2.4504 1.13909,-5.21425 1.19174,-7.86547 0.0571,-2.8772 -0.95946,-5.70275 -0.95339,-8.58051 0.004,-2.07938 0.0636,-4.22232 0.71504,-6.19703 0.94776,-2.87305 2.32745,-5.79 4.5286,-7.86547 1.1633,-1.09689 4.29026,-2.14513 4.29026,-2.14513"
     id="path3129"
     style="fill:none;stroke:#000000;stroke-width:1px;stroke-linecap:butt;stroke-linejoin:miter;stroke-opacity:1" />
  <path
     d="m 245.25953,393.98835 7.15043,0.71504 4.5286,4.05191 6.19703,1.43008 7.86547,5.95869 6.19703,0.71504 7.15043,1.43008 2.86017,2.62183 6.43538,-5.24365 2.62182,-2.14513 0.4767,-3.57521 8.10381,-5.48199 12.15572,-4.5286 7.38877,-2.38347 4.76695,-3.33687 7.86547,-1.66843 14.30084,-1.43009 9.05721,-0.95339 7.15042,3.81356 11.67903,4.05191 8.5805,4.76695 5.24365,3.09852 14.53919,1.19173 9.5339,-0.47669 7.15043,-2.38348 7.15042,-5.24364 5.24364,-6.91208 6.19704,-7.62712 5.00529,-1.90677 7.38878,-0.95339 7.62711,2.14512 8.34216,3.33687 0.71505,5.95868 3.81356,2.38348 7.38877,-1.43009 3.33686,-2.38347"
     id="path3131"
     style="fill:none;stroke:#000000;stroke-width:1px;stroke-linecap:butt;stroke-linejoin:miter;stroke-opacity:1" />
  <path
     d="m 288.87712,442.61123 c 0,0 4.59439,-1.49939 6.91208,-1.19174 2.43132,0.32273 4.22119,3.12259 6.67372,3.09852 3.80178,-0.0373 6.90217,-3.20143 10.24895,-5.0053 3.98213,-2.14632 8.10503,-4.13888 11.67902,-6.91208 1.33154,-1.03319 2.5522,-2.23584 3.57521,-3.57521 1.94402,-2.54521 2.06814,-6.61772 4.76695,-8.34216 2.35181,-1.50272 5.5566,-0.54219 8.34216,-0.71504 2.06324,-0.12803 4.15327,0.072 6.19704,-0.23835 2.11498,-0.3212 4.2862,-0.70663 6.19703,-1.66843 2.17231,-1.09341 3.29039,-4.42936 5.72034,-4.5286 2.28976,-0.0935 3.45773,3.44977 5.72034,3.81356 2.35978,0.37941 4.84661,-0.70412 6.91207,-1.90678 1.65066,-0.96113 2.2548,-3.40472 4.05191,-4.05191 3.97932,-1.43306 8.78635,-0.56793 12.63242,1.19174 2.40159,1.09878 3.31158,4.39903 5.72034,5.48199 2.68991,1.20936 5.8912,0.35864 8.81885,0.71504 3.43592,0.41827 6.79367,1.46446 10.24894,1.66843 3.65176,0.21557 7.4549,-1.51019 10.96399,-0.47669 2.24147,0.66016 3.74269,2.80734 5.72033,4.05191 2.0769,1.30703 4.78426,1.75984 6.43539,3.57521 1.86718,2.05292 2.00593,5.19207 3.33686,7.62712 1.23648,2.26226 1.94067,5.37416 4.29025,6.43538 2.70338,1.22102 6.10299,-2.38473 8.81886,-1.19174 2.92595,1.28527 3.84943,5.11813 5.48199,7.86547 0.99829,1.67996 1.31055,3.7947 2.62182,5.24364 1.19801,1.32379 4.52861,2.86017 4.52861,2.86017"
     id="path3133"
     style="fill:none;stroke:#000000;stroke-width:1px;stroke-linecap:butt;stroke-linejoin:miter;stroke-opacity:1" />
  <path
     d="m 308.65996,451.90678 c 0,0 2.22171,0.0918 3.09852,-0.4767 2.4593,-1.59458 2.60282,-5.41205 4.76694,-7.38877 2.78132,-2.54047 6.71063,-3.42705 10.0106,-5.24364 3.61721,-1.99122 7.62634,-3.46876 10.72563,-6.19704 1.57441,-1.38594 3.2259,-2.99178 3.81356,-5.00529 0.26804,-0.91838 -0.60299,-1.9757 -0.23834,-2.86017 1.07407,-2.6052 6.43538,-5.48199 6.43538,-5.48199"
     id="path3135"
     style="fill:none;stroke:#000000;stroke-width:1px;stroke-linecap:butt;stroke-linejoin:miter;stroke-opacity:1" />
  <path
     d="m 363.47987,444.75635 c 0,0 5.09472,-1.23255 7.62712,-1.90677 3.66996,-0.97708 7.20214,-2.57716 10.96399,-3.09852 3.69876,-0.51261 7.5007,0.49141 11.20233,0 3.01861,-0.40073 5.79012,-2.06824 8.81885,-2.38348 4.19489,-0.43662 8.42404,0.43716 12.63242,0.71505 4.2136,0.27823 8.56815,-0.19274 12.63241,0.95339 3.1805,0.89691 6.30894,2.3791 8.81886,4.5286 2.46231,2.10873 3.29283,5.71675 5.72034,7.86546 1.8375,1.62647 4.40644,2.19492 6.43538,3.57522 2.38027,1.61931 6.67373,5.48199 6.67373,5.48199"
     id="path3137"
     style="fill:none;stroke:#000000;stroke-width:1px;stroke-linecap:butt;stroke-linejoin:miter;stroke-opacity:1" />
  <path
     d="m 316.28708,458.34216 c 0,0 3.68447,0.3287 5.48199,0 3.09175,-0.56537 5.88348,-2.2134 8.81885,-3.33686 2.46653,-0.94402 4.75479,-2.66773 7.38878,-2.86017 1.78769,-0.13061 3.58811,0.50463 5.24364,1.19173 3.29803,1.36878 6.30977,3.43951 9.0572,5.72034 1.16788,0.96954 1.90186,2.40308 3.09852,3.33687 2.85938,2.23126 5.99377,4.45494 9.5339,5.24364 2.40898,0.53669 4.96973,-0.96607 7.38877,-0.47669 2.08951,0.42272 3.58872,2.82928 5.72034,2.86017 2.45239,0.0355 4.22233,-3.02032 6.67373,-3.09852 3.06728,-0.0978 5.63819,2.46478 8.58051,3.33686 1.86742,0.55349 3.78096,1.37185 5.72033,1.19174 2.90879,-0.27014 5.18339,-3.40877 8.10382,-3.33686 1.49226,0.0367 2.5592,1.91146 4.05191,1.90678 2.02555,-0.006 3.47207,-2.37059 5.48199,-2.62183 3.21588,-0.40199 6.41668,1.02001 9.5339,1.90678 4.81186,1.36886 9.13918,4.35561 14.0625,5.24365 2.58018,0.4654 5.63521,1.37837 7.86546,0 1.66233,-1.02738 2.20948,-3.33346 2.62182,-5.24365 0.43619,-2.02066 -1.18924,-4.36152 -0.23834,-6.19703 0.87176,-1.68275 2.98251,-2.46023 4.76695,-3.09852 2.03223,-0.72692 4.40315,0.0119 6.43538,-0.71504 1.78444,-0.63829 3.34523,-1.84538 4.76695,-3.09852 1.01497,-0.89462 1.35003,-2.6369 2.62182,-3.09851 1.74347,-0.63281 3.62967,0.85834 5.48199,0.95339 3.42012,0.1755 6.82891,-0.89235 10.24894,-0.71505 3.22194,0.16703 6.52397,0.50694 9.5339,1.66844 1.66568,0.64277 2.7488,2.71889 4.5286,2.86017 1.80951,0.14364 3.19042,-2.1109 5.0053,-2.14513 2.2128,-0.0417 4.05034,1.845 6.19703,2.38347 1.86388,0.46753 3.85282,1.1678 5.72034,0.71505 1.77756,-0.43095 3.35213,-1.69803 4.5286,-3.09852 0.61748,-0.73505 1.08195,-1.66813 1.19174,-2.62182 0.0463,-0.40246 -0.23835,-1.19174 -0.23835,-1.19174"
     id="path3139"
     style="fill:none;stroke:#000000;stroke-width:1px;stroke-linecap:butt;stroke-linejoin:miter;stroke-opacity:1" />
  <path
     d="m 412.57945,409.71928 5.48199,1.19174 4.05191,-3.57522 6.19703,2.14513 7.38877,5.72034 4.05191,2.86017 6.91208,0 7.15042,4.29025 7.15042,6.67373 6.43539,4.29026 4.5286,3.33686 -1.19174,7.15043 0.23835,3.33686 1.66843,4.5286 -0.23835,1.66843"
     id="path3141"
     style="fill:none;stroke:#000000;stroke-width:1px;stroke-linecap:butt;stroke-linejoin:miter;stroke-opacity:1" />
  <path
     d="m 435.69915,389.69809 4.52861,-3.57521 3.57521,-2.14513 6.91207,2.14513 6.19704,5.95869 2.62182,9.5339 4.29025,6.67372 5.72034,10.72564 0.23835,15.25424"
     id="path3143"
     style="fill:none;stroke:#000000;stroke-width:1px;stroke-linecap:butt;stroke-linejoin:miter;stroke-opacity:1" />
  <path
     d="m 523.88771,394.22669 0.4767,7.15043 0.23835,10.48729 3.09851,6.67372 6.19704,6.19704 10.01059,3.57521 5.48199,1.66843 4.76695,8.58051 1.19174,4.5286"
     id="path3145"
     style="fill:none;stroke:#000000;stroke-width:1px;stroke-linecap:butt;stroke-linejoin:miter;stroke-opacity:1" />
  <path
     d="m 541.28708,390.41313 9.0572,-1.90678 10.48729,3.09852 5.72034,6.67373 2.62182,6.91208 1.90678,11.91737 -0.23835,12.63242 -2.62182,5.48199 -3.81356,5.48199 0,2.86017 -1.66843,2.38347"
     id="path3147"
     style="fill:none;stroke:#000000;stroke-width:1px;stroke-linecap:butt;stroke-linejoin:miter;stroke-opacity:1" />
  <path
     d="m 470.02119,470.25953 c 0,0 4.90094,2.47119 6.91207,4.29026 0.96639,0.8741 1.27915,2.40683 2.38348,3.09851 1.99399,1.24891 4.58546,1.78032 6.91207,1.43009 1.79326,-0.26995 3.01733,-2.14489 4.76695,-2.62182 2.60731,-0.71072 5.45606,-0.77922 8.10382,-0.23835 2.22904,0.45534 3.95944,2.44889 6.19703,2.86017 2.27145,0.4175 4.69726,-1.13118 6.91208,-0.4767 1.52384,0.45029 2.48559,1.98761 3.81356,2.86017 2.14129,1.40696 4.58465,2.33019 6.67373,3.81356 1.97445,1.40198 3.33447,3.64794 5.48199,4.76695 4.35757,2.2706 9.39265,3.80684 14.30084,3.57521 2.8614,-0.13503 6.15051,-0.76484 8.10382,-2.86017 1.62976,-1.74825 0.096,-5.35209 1.90678,-6.91207 2.0009,-1.72375 5.25946,-0.52478 7.86546,-0.95339 1.9219,-0.31609 3.89397,-1.86848 5.72034,-1.19174 2.44376,0.9055 2.16232,6.28522 4.76695,6.19703 2.29035,-0.0776 1.93293,-4.41077 3.81356,-5.72033 1.40746,-0.98007 3.54318,-0.29526 5.0053,-1.19174 1.77787,-1.09008 2.35874,-3.54946 4.0519,-4.76695 1.0421,-0.74934 2.806,-0.40258 3.57522,-1.43009 1.00441,-1.34167 0.47669,-5.00529 0.47669,-5.00529"
     id="path3149"
     style="fill:none;stroke:#000000;stroke-width:1px;stroke-linecap:butt;stroke-linejoin:miter;stroke-opacity:1" />
  <path
     d="m 577.99259,520.78919 4.29025,-3.81356 0,-6.91207 -1.19174,-7.15043 0.4767,-6.19703 8.10381,-0.95339 4.5286,-5.0053 0.71505,-7.86546 1.90678,-6.67373 4.29025,-5.72034 0,-4.29025"
     id="path3151"
     style="fill:none;stroke:#000000;stroke-width:1px;stroke-linecap:butt;stroke-linejoin:miter;stroke-opacity:1" />
  <path
     d="m 555.34958,528.41631 -5.24365,-3.09851 -2.86017,-5.482 -1.43008,-10.96398 0.23835,-9.29555 -1.43009,-4.05191 -0.47669,-2.86017"
     id="path3153"
     style="fill:none;stroke:#000000;stroke-width:1px;stroke-linecap:butt;stroke-linejoin:miter;stroke-opacity:1" />
  <path
     d="m 479.55509,488.13559 8.10381,8.34216 0.23835,4.52861 6.91207,7.86546 3.81356,11.44068 -0.23835,9.0572 1.43009,11.44068 -2.62182,7.15042 3.33686,7.62712 -2.14513,4.5286 7.62712,8.10382 2.86017,5.72034"
     id="path3155"
     style="fill:none;stroke:#000000;stroke-width:1px;stroke-linecap:butt;stroke-linejoin:miter;stroke-opacity:1" />
  <path
     d="m 491.94915,488.13559 8.34216,9.29555 1.43009,7.86547 5.95869,4.5286 5.24364,6.91208 0.95339,5.72034 0,4.76695 10.01059,12.87076 -2.86017,11.67902 -4.76695,9.29555 -5.00529,4.52861 0.23835,8.34216"
     id="path3157"
     style="fill:none;stroke:#000000;stroke-width:1px;stroke-linecap:butt;stroke-linejoin:miter;stroke-opacity:1" />
  <path
     d="m 618.03496,507.68008 4.76695,9.77225 6.43538,6.91208 5.48199,8.10381 1.66843,10.72564 -6.19703,7.38877 -8.10381,3.81356 -4.52861,10.01059 -2.14512,16.44597 -2.14513,15.49259 2.38347,13.82415 5.0053,10.72564 3.81356,6.91207 -0.71504,5.95869 0,4.05191"
     id="path3159"
     style="fill:none;stroke:#000000;stroke-width:1px;stroke-linecap:butt;stroke-linejoin:miter;stroke-opacity:1" />
  <path
     d="m 552.72776,573.22563 c 0,0 -4.83183,-1.14577 -6.43539,-2.86016 -1.73417,-1.85402 -2.27186,-4.63602 -2.62182,-7.15043 -0.43932,-3.15647 -0.70951,-6.68312 0.71504,-9.5339 1.51008,-3.02193 4.54688,-5.28645 7.62712,-6.67373 2.84833,-1.28283 6.33516,-0.19438 9.29555,-1.19173 2.867,-0.96589 4.85686,-4.8463 7.86547,-4.5286 3.18891,0.33674 4.41979,4.75425 7.15042,6.43538 2.61328,1.60889 6.46448,1.11421 8.58051,3.33686 1.55912,1.63768 0.85182,4.5806 2.14513,6.43538 1.16389,1.66917 3.81,2.01772 4.76695,3.81356 0.89981,1.68861 -0.93134,4.42477 0.47669,5.72034 1.81242,1.66767 5.20105,-1.13131 7.38877,0 2.07557,1.07332 3.34321,3.49373 4.05191,5.72034 0.31326,0.98419 -0.67886,2.32012 0,3.09852 2.68818,3.08235 12.15572,1.66843 12.15572,1.66843"
     id="path3161"
     style="fill:none;stroke:#000000;stroke-width:1px;stroke-linecap:butt;stroke-linejoin:miter;stroke-opacity:1" />
  <path
     d="m 231.90705,310.45721 6.74149,-9.101 16.17956,-1.01123 13.82004,-0.67414 3.03367,5.05611 8.76393,-2.02245 7.41563,2.02245 9.43808,0 3.03367,-4.71904 7.07856,1.01122 7.41563,-7.41563 0,-4.38196 8.42686,-8.76393 -2.35952,-6.06734 0,-7.75271"
     id="path3163"
     style="fill:none;stroke:#000000;stroke-width:1px;stroke-linecap:butt;stroke-linejoin:miter;stroke-opacity:1" />
  <path
     d="m 236.96317,292.2552 4.71904,2.35952 0.67415,-9.43807 8.76392,-2.02245 5.39319,-7.41563 3.03367,-8.42686 6.06734,-3.37074 3.37074,-7.41563 7.07856,-7.41564 8.42685,4.0449 4.38197,4.38196 10.4493,1.68537 7.41563,9.101 7.07856,1.3483 7.07856,-2.69659 7.07855,-0.67415 8.08979,-4.71904 11.12344,-0.33707 8.08978,-6.74149 4.38197,0.67415"
     id="path3165"
     style="fill:none;stroke:#000000;stroke-width:1px;stroke-linecap:butt;stroke-linejoin:miter;stroke-opacity:1" />
  <path
     d="m 224.15435,408.54581 c 0,0 1.68372,-6.69146 2.02244,-10.11223 0.40964,-4.13702 0.2299,-8.32086 0,-12.47175 -0.11253,-2.03178 0.64855,-4.52097 -0.67415,-6.06733 -1.66543,-1.94704 -5.72373,-0.0984 -7.41563,-2.02245 -2.69665,-3.06673 -0.75486,-8.15838 -1.68537,-12.13467 -0.8096,-3.45961 -3.19622,-6.56344 -3.37074,-10.11223 -0.12451,-2.53185 1.06254,-4.95842 1.68537,-7.41563 0.71671,-2.82757 1.92249,-5.54279 2.35952,-8.42685 0.60625,-4.00078 -1.11159,-8.35642 0.33707,-12.13467 1.05586,-2.75379 3.37452,-4.96706 5.73027,-6.74149 4.13713,-3.11622 9.11437,-5.22227 14.15711,-6.40441 3.06494,-0.71849 6.44268,-1.30541 9.43808,-0.33707 2.43793,0.78813 4.14654,3.0234 6.06734,4.71904 1.90596,1.68255 3.85292,3.37049 5.39318,5.39318 2.89599,3.80306 3.85671,8.94049 7.07856,12.47175 2.12178,2.32555 5.18314,3.57456 7.75271,5.39319 5.65052,3.99919 11.64863,7.57078 16.85371,12.13467 1.97225,1.7293 2.98531,4.68988 5.39319,5.73026 2.37227,1.02499 5.27534,-0.73549 7.7527,0 5.52697,1.64087 9.60577,6.38141 14.49419,9.43808 2.77749,1.73673 5.26995,4.1817 8.42686,5.05611 2.81531,0.7798 5.95112,-0.78876 8.76393,0 2.91297,0.81684 5.06347,3.33318 7.75271,4.71904 1.52126,0.78396 4.71903,2.02244 4.71903,2.02244"
     id="path3167"
     style="fill:none;stroke:#000000;stroke-width:1px;stroke-linecap:butt;stroke-linejoin:miter;stroke-opacity:1" />
  <path
     d="m 241.00806,398.77065 c 0,0 -4.38908,-3.81774 -4.38197,-6.40441 0.005,-1.77653 2.96987,-2.60657 3.03367,-4.38196 0.10311,-2.86933 -4.6585,-4.5578 -4.38196,-7.41563 0.26063,-2.69336 4.27994,-3.60101 5.39318,-6.06734 1.90926,-4.22987 0.45679,-9.34481 1.68538,-13.82004 0.81243,-2.95934 3.07633,-5.4237 3.70781,-8.42686 0.27744,-1.31944 -0.95339,-3.0915 0,-4.04489 3.73411,-3.73411 10.7305,1.32465 15.84249,0 2.23963,-0.58034 3.9672,-2.4001 6.06734,-3.37074 1.74283,-0.8055 5.39318,-2.02245 5.39318,-2.02245"
     id="path3169"
     style="fill:none;stroke:#000000;stroke-width:1px;stroke-linecap:butt;stroke-linejoin:miter;stroke-opacity:1" />
  <path
     d="m 251.79443,373.15301 c 0,0 5.07274,-2.69811 7.75271,-2.35952 3.00148,0.37921 4.83974,3.9022 7.75271,4.71904 2.27189,0.63707 5.07143,-1.24047 7.07856,0 1.28231,0.79251 0.69337,3.33359 2.02244,4.04489 3.19469,1.70975 7.28133,-0.42961 10.78638,-1.34829 2.58346,-0.67713 4.74543,-2.98086 7.41563,-3.03367 2.62972,-0.052 4.82529,2.24024 7.41563,2.69659 2.43439,0.42888 5.00988,-0.56792 7.41563,0 2.4452,0.57723 4.64845,1.98101 6.74149,3.37074 1.72597,1.146 2.74255,3.42378 4.71904,4.04489 2.15449,0.67705 6.74148,-0.67414 6.74148,-0.67414"
     id="path3171"
     style="fill:none;stroke:#000000;stroke-width:1px;stroke-linecap:butt;stroke-linejoin:miter;stroke-opacity:1" />
  <path
     d="m 159.77317,322.59188 7.75271,4.04489 2.35952,3.03367 6.06734,-4.04489 12.47174,-1.3483 7.07856,2.02245 8.76393,2.35952 8.08978,0 4.38197,6.06733"
     id="path3173"
     style="fill:none;stroke:#000000;stroke-width:1px;stroke-linecap:butt;stroke-linejoin:miter;stroke-opacity:1" />
  <path
     d="m 140.89702,266.30049 c 0,0 1.13953,-6.65883 -0.67415,-9.101 -0.93306,-1.25639 -3.20749,-0.6511 -4.38196,-1.68538 -1.245,-1.09639 -1.76045,-2.83496 -2.35952,-4.38196 -0.83645,-2.16002 -1.6549,-4.42536 -1.68537,-6.74148 -0.0409,-3.1074 3.19783,-6.22419 2.02244,-9.10101 -1.0137,-2.48106 -5.10229,-2.26152 -6.74148,-4.38196 -1.73846,-2.24885 -3.43749,-5.34557 -2.6966,-8.08978 0.97528,-3.61237 4.9261,-6.09463 8.42686,-7.41564 4.09979,-1.54705 8.79676,-0.5354 13.14589,0 3.21855,0.39622 6.20612,2.62502 9.43808,2.35952 3.66128,-0.30077 6.77031,-2.85651 10.11223,-4.38196 2.83446,-1.29382 5.34207,-3.60645 8.42685,-4.04489 2.70659,-0.38469 5.37361,1.65818 8.08978,1.3483 3.5036,-0.39972 6.39725,-3.0326 9.77515,-4.0449 2.84963,-0.85398 5.92826,-0.78611 8.76393,-1.68537 3.64303,-1.15529 6.89023,-3.32643 10.4493,-4.71904 2.31616,-0.90628 4.60564,-2.09382 7.07856,-2.35951 4.15755,-0.44669 8.30455,1.69354 12.47175,1.34829 2.90702,-0.24084 5.84986,-0.99281 8.42685,-2.35952 5.07112,-2.68948 8.11281,-8.36347 13.1459,-11.12345 2.99144,-1.6404 6.98143,-1.07541 9.77515,-3.03366 3.34909,-2.34753 4.12879,-7.34124 7.41563,-9.77516 1.82836,-1.35391 4.93353,-0.62387 6.40441,-2.35952 3.1058,-3.66487 0.6139,-9.82818 2.6966,-14.15711 1.34732,-2.80042 4.98914,-4.16392 6.06733,-7.07856 1.13048,-3.05599 -0.83632,-6.62592 0,-9.77515 0.23251,-0.87551 1.3483,-2.35952 1.3483,-2.35952"
     id="path3175"
     style="fill:none;stroke:#000000;stroke-width:1px;stroke-linecap:butt;stroke-linejoin:miter;stroke-opacity:1" />
  <path
     d="m 141.90824,230.9077 5.73026,7.07856 6.40441,0.67414 3.03367,4.71904 5.05611,-3.70781 0,-8.08978 4.04489,-4.71904 1.01123,-4.38197 0,-6.74148 3.70781,-5.39319"
     id="path3177"
     style="fill:none;stroke:#000000;stroke-width:1px;stroke-linecap:butt;stroke-linejoin:miter;stroke-opacity:1" />
  <path
     d="m 160.11025,258.21071 8.08978,-6.06734 3.70782,-0.33707 3.70781,-5.05611 9.77515,1.34829"
     id="path3179"
     style="fill:none;stroke:#000000;stroke-width:1px;stroke-linecap:butt;stroke-linejoin:miter;stroke-opacity:1" />
  <path
     d="m 148.31265,282.14298 3.03367,7.07856 8.08978,2.02244 4.71904,8.08978 7.75271,2.35952 3.37074,7.41563 6.40441,-0.67414 3.37074,-8.42686 0.67415,-6.06734 0,-11.12344 5.73026,-6.40441 6.06734,-3.70782 -4.04489,-8.08978 -5.39319,-8.42686 -1.68537,-5.05611 -0.67415,-3.70782 0,-7.07855 3.03367,-5.73027 6.74148,-3.70781 5.05611,-3.03367 0,-11.46052 1.68537,-6.06734 0,-6.40441"
     id="path3181"
     style="fill:none;stroke:#000000;stroke-width:1px;stroke-linecap:butt;stroke-linejoin:miter;stroke-opacity:1" />
  <path
     d="m 210.33431,293.26643 c 0,0 3.60177,2.68821 5.39318,4.04489 1.91689,1.45171 3.38746,4.92347 5.73026,4.38196 1.95829,-0.45264 1.52138,-3.76266 2.6966,-5.39319 1.48655,-2.06248 3.99364,-3.2707 5.39319,-5.39318 1.33234,-2.02054 2.2389,-4.36489 2.69659,-6.74149 0.70117,-3.64091 0.67689,-7.47794 0,-11.12345 -0.2857,-1.53867 -1.47667,-2.83097 -1.68537,-4.38196 -0.60233,-4.4764 0.6493,-9.02065 1.34829,-13.48297 0.74688,-4.76803 1.27293,-9.6636 3.03367,-14.15712 1.52553,-3.89326 3.37831,-7.90064 6.40441,-10.78637 2.94639,-2.80972 7.89457,-2.86439 10.78638,-5.73026 3.17825,-3.14975 6.12169,-7.33192 6.40441,-11.7976 0.27422,-4.33132 -3.38797,-8.00384 -4.71904,-12.13467 -1.10326,-3.42385 -1.85688,-6.95147 -2.6966,-10.4493 -0.24181,-1.00727 -0.67414,-3.03367 -0.67414,-3.03367"
     id="path3183"
     style="fill:none;stroke:#000000;stroke-width:1px;stroke-linecap:butt;stroke-linejoin:miter;stroke-opacity:1" />
  <path
     d="m 202.24452,250.12093 c 0,0 6.49831,-2.52169 9.77516,-3.70782 3.24088,-1.17311 7.45369,-0.82313 9.77515,-3.37074 3.19373,-3.50486 0.35681,-10.15942 3.37074,-13.82004 1.02254,-1.24194 3.10985,-1.03772 4.38197,-2.02245 1.26278,-0.9775 2.44864,-2.22192 3.03366,-3.70781 1.27867,-3.24769 -0.60452,-7.20162 0.67415,-10.44931 1.17004,-2.97178 4.99362,-4.40771 6.06734,-7.41563 0.37773,-1.05818 0.0797,-2.24999 0,-3.37074 -0.11264,-1.58499 -0.67415,-4.71904 -0.67415,-4.71904"
     id="path3185"
     style="fill:none;stroke:#000000;stroke-width:1px;stroke-linecap:butt;stroke-linejoin:miter;stroke-opacity:1" />
  <path
     d="m 259.21007,257.53656 c 0,0 2.84219,-7.54435 6.06733,-9.43808 1.55327,-0.91204 3.71757,0.3238 5.39319,-0.33707 2.30187,-0.90786 4.17014,-2.79841 5.73026,-4.71904 3.35881,-4.13496 5.20576,-9.30986 7.41563,-14.15712 1.15116,-2.52501 2.51914,-5.02578 3.03367,-7.7527 0.74998,-3.97476 0,-8.08979 0,-12.13468 0,-3.93253 -0.85172,-7.9584 0,-11.79759 0.40281,-1.81571 0.79078,-4.05705 2.35952,-5.05612 1.42156,-0.90534 3.72769,1.0372 5.05611,0 1.09544,-0.85529 1.01123,-2.6551 1.01123,-4.04489 0,-2.31632 -1.63028,-4.42582 -1.68538,-6.74148 -0.0409,-1.71826 0.96955,-3.33787 1.01123,-5.05611 0.0551,-2.27164 -0.6559,-4.49714 -1.01123,-6.74149 -0.4275,-2.70016 -2.08206,-5.45631 -1.34829,-8.08978 0.55608,-1.99576 2.09766,-4.01153 4.04489,-4.71904 1.28472,-0.46679 2.71134,0.97422 4.04489,0.67415 3.07124,-0.69107 4.60497,-5.43604 7.75271,-5.39319 2.6515,0.0361 3.79761,4.23286 6.40441,4.71904 2.51873,0.46976 5.04851,-1.04194 7.41563,-2.02244 1.67381,-0.69332 4.71904,-2.6966 4.71904,-2.6966"
     id="path3187"
     style="fill:none;stroke:#000000;stroke-width:1px;stroke-linecap:butt;stroke-linejoin:miter;stroke-opacity:1" />
  <path
     d="m 303.36679,171.91971 c 0,0 3.3607,5.55155 6.06733,7.07856 1.1905,0.67165 3.05283,-0.26618 4.04489,0.67415 1.50364,1.42525 0.11519,4.40249 1.3483,6.06733 1.76681,2.38541 4.99569,3.28169 7.75271,4.38197 2.15133,0.85856 4.74579,0.50955 6.74148,1.68537 1.98628,1.17027 2.53607,4.31482 4.71904,5.05611 1.94146,0.65928 4.03646,-0.72937 6.06734,-1.01122 2.01557,-0.27973 4.37029,0.44872 6.06733,-0.67415 1.72016,-1.13817 1.75908,-3.77152 3.03367,-5.39319 1.42461,-1.81254 3.47239,-3.04372 5.05611,-4.71903 0.60284,-0.63771 1.68537,-2.02245 1.68537,-2.02245"
     id="path3189"
     style="fill:none;stroke:#000000;stroke-width:1px;stroke-linecap:butt;stroke-linejoin:miter;stroke-opacity:1" />
  <path
     d="m 303.36679,200.90809 c 0,0 3.98373,2.79317 6.06733,4.04489 2.84413,1.70861 5.48545,4.20913 8.76393,4.71904 1.80733,0.2811 3.58856,-0.71328 5.39319,-1.01122 2.35164,-0.38825 4.77493,-1.62298 7.07856,-1.01122 2.47632,0.65762 3.50923,4.575 6.06733,4.71904 2.36645,0.13325 4.10583,-2.37729 6.06734,-3.70782 1.39477,-0.9461 2.77167,-1.92941 4.04489,-3.03367 2.16073,-1.87399 3.29151,-5.37788 6.06734,-6.06733 1.48317,-0.36838 2.99193,0.71323 4.38196,1.34829 1.92826,0.88096 5.39319,3.37075 5.39319,3.37075"
     id="path3191"
     style="fill:none;stroke:#000000;stroke-width:1px;stroke-linecap:butt;stroke-linejoin:miter;stroke-opacity:1" />
  <path
     d="m 287.18723,234.95259 c 0,0 1.14853,1.64135 2.02244,2.02244 2.78268,1.21344 6.38968,-1.02839 9.101,0.33708 1.92767,0.97081 1.96215,4.48993 4.04489,5.05611 3.94667,1.07287 7.52622,-3.26463 11.46053,-4.38196 2.31057,-0.6562 4.6945,-1.64083 7.07856,-1.3483 1.59675,0.19593 2.77926,2.16153 4.38196,2.02244 1.76988,-0.1536 2.60543,-3.03366 4.38197,-3.03366 1.77653,0 2.68623,2.50396 4.38196,3.03366 3.00293,0.93804 6.38599,-0.76303 9.43808,0 1.85306,0.46327 3.15122,2.83743 5.05611,2.6966 3.76502,-0.27835 5.3257,-6.73673 9.101,-6.74149 2.65174,-0.003 6.40441,4.71904 6.40441,4.71904"
     id="path3193"
     style="fill:none;stroke:#000000;stroke-width:1px;stroke-linecap:butt;stroke-linejoin:miter;stroke-opacity:1" />
  <path
     d="m 269.32229,318.88407 15.50542,12.47174 3.70781,5.39319 8.76393,-1.01122 4.71904,2.02244 6.06734,-3.37074 6.06733,-1.01122 5.73026,0 6.74149,-5.73026 7.07856,-6.74149 15.50541,0.33708 10.11223,1.01122 4.71903,2.35952 6.06734,-2.35952 9.43808,0.33707 7.41563,2.35952 6.06734,3.03367 6.74148,-6.06734 9.43808,-0.33707 5.73026,3.03367 5.73026,-0.67415 2.69659,-2.02245"
     id="path3195"
     style="fill:none;stroke:#000000;stroke-width:1px;stroke-linecap:butt;stroke-linejoin:miter;stroke-opacity:1" />
  <path
     d="m 291.23212,328.65922 6.06733,-1.01122 3.37074,-3.70782 6.06734,-2.02245 2.69659,-5.05611 0,-7.75271 3.03367,-3.70781 4.71904,-5.39319 8.76393,-5.05611 12.80882,-2.6966 2.35952,-0.67414 5.39319,-1.68538 8.08978,1.68538 4.38196,2.35951 12.13467,0 4.38197,2.6966 4.38196,-3.03367 7.07856,0 5.73026,-1.01122 0.67415,-1.3483"
     id="path3197"
     style="fill:none;stroke:#000000;stroke-width:1px;stroke-linecap:butt;stroke-linejoin:miter;stroke-opacity:1" />
  <path
     d="m 344.82691,337.42315 c 4.01037,1.55095 7.80289,3.84434 12.01526,4.72741 2.79021,0.58493 5.99773,-0.94895 8.54627,0.3287 2.83466,1.4211 4.07244,4.91243 6.25913,7.18183 5.53845,1.09848 6.14045,3.55957 9.40669,4.86614 4.89817,1.47756 9.85816,2.7799 14.52255,4.9201 4.11999,1.75028 8.71002,2.61008 12.44054,5.09215 5.49584,3.65661 7.86595,11.56665 13.99956,14.00672 1.41202,0.56173 3.12695,0.18342 4.55713,-0.12947 2.61225,-1.84004 4.81182,-4.45449 7.79368,-5.62781 2.46128,-0.96848 5.24909,-0.65613 7.87364,-0.9842 0.67415,0.44943 1.3483,0.89886 2.02245,1.34829"
     id="path3199"
     style="fill:none;stroke:#000000;stroke-width:1px;stroke-linecap:butt;stroke-linejoin:miter;stroke-opacity:1" />
  <path
     d="m 396.06219,334.38948 5.73027,-2.69659 7.7527,4.04489 3.70782,0.33707 9.101,5.39319 7.41563,7.7527 8.76393,0.67415 13.1459,3.03367 5.39319,-0.67415 4.71903,5.73026 0.67415,4.71904 7.41564,5.39319 1.68537,8.76393"
     id="path3201"
     style="fill:none;stroke:#000000;stroke-width:1px;stroke-linecap:butt;stroke-linejoin:miter;stroke-opacity:1" />
  <path
     d="m 369.43333,156.07722 c 0,0 5.79909,-1.57722 8.76393,-2.02244 1.55954,-0.23419 3.14549,-0.44165 4.71904,-0.33708 3.32007,0.22063 6.62396,0.95403 9.77515,2.02245 3.42661,1.1618 7.24645,2.13116 9.77515,4.71904 0.94882,0.97102 1.42818,2.37477 1.68538,3.70781 0.46878,2.42962 -0.81563,4.98792 -0.33708,7.41564 0.67081,3.40309 2.7399,6.38281 4.38197,9.43807 0.81194,1.5107 2.19525,2.74181 2.69659,4.38197 0.78894,2.58105 -0.33757,5.47653 0.33707,8.08978 0.50241,1.94612 1.7482,3.62109 2.6966,5.39319 0.85487,1.59735 1.81058,3.13875 2.69659,4.71904 1.25421,2.23701 3.43726,4.19117 3.70782,6.74148 0.24751,2.33302 -1.38917,4.48247 -2.02245,6.74149 -0.72091,2.57158 -1.95596,5.08281 -2.02244,7.7527 -0.0686,2.75364 1.07032,5.40483 1.68537,8.08978 0.51721,2.25784 2.17928,4.47844 1.68537,6.74149 -0.46022,2.10869 -3.1942,3.0725 -4.04489,5.05611 -0.98329,2.2928 -1.93719,5.09909 -1.01122,7.41563 1.06813,2.6722 5.37125,2.86257 6.74148,5.39319 1.6662,3.07723 0.52218,6.98427 1.01122,10.4493 0.68677,4.86608 1.06759,9.85774 2.6966,14.49419 1.18308,3.36724 4.18729,5.97642 5.05611,9.43808 0.38292,1.52569 -0.48005,3.22107 0,4.71904 0.8849,2.7613 3.70554,4.51268 5.05611,7.07856 1.2251,2.3275 1.21516,5.24227 2.6966,7.41563 1.43474,2.10485 4.33866,2.92248 5.73026,5.05611 1.41708,2.1727 2.35952,7.41563 2.35952,7.41563"
     id="path3203"
     style="fill:none;stroke:#000000;stroke-width:1px;stroke-linecap:butt;stroke-linejoin:miter;stroke-opacity:1" />
  <path
     d="m 444.26381,238.32333 0,8.42686 4.04489,5.73026 0,7.7527 4.71904,9.10101 1.68537,6.40441 3.37074,5.39318 0.67415,5.05612 0.67415,6.74148 3.37074,5.05611 1.68537,2.35952 -1.68537,2.35952 1.34829,5.73027 3.70782,4.04489 -3.37074,10.11222 2.35952,8.08978 0.33707,4.38197"
     id="path3205"
     style="fill:none;stroke:#000000;stroke-width:1px;stroke-linecap:butt;stroke-linejoin:miter;stroke-opacity:1" />
  <path
     d="m 451.00529,221.13255 c 0,0 3.64411,1.94241 4.38196,3.70781 0.56493,1.35166 -1.24974,3.23603 -0.33707,4.38197 1.41564,1.77745 4.776,-0.12906 6.74148,1.01122 2.35264,1.36489 2.94647,4.68766 5.05612,6.40441 1.9487,1.58578 5.11753,1.45373 6.74148,3.37074 1.97563,2.33215 1.07516,6.17299 2.6966,8.76393 1.223,1.95426 3.29344,3.23316 5.05611,4.71904 2.69754,2.27395 5.4779,4.46759 8.42685,6.40441 3.44805,2.26463 7.02088,4.38252 10.78638,6.06734 4.44334,1.98811 8.98994,4.11402 13.82004,4.71903 2.79608,0.35023 6.47086,1.35435 8.42686,-0.67414 1.79549,-1.86202 -0.99563,-5.53577 0.33707,-7.75271 1.14175,-1.89928 3.67923,-2.5316 5.73026,-3.37074 1.71507,-0.70168 4.2528,0.11229 5.39319,-1.3483 0.48403,-0.61993 -0.43296,-1.70291 0,-2.35952 1.88421,-2.85747 6.89129,-1.75814 9.43808,-4.04489 1.53474,-1.37803 3.03366,-5.39319 3.03366,-5.39319"
     id="path3207"
     style="fill:none;stroke:#000000;stroke-width:1px;stroke-linecap:butt;stroke-linejoin:miter;stroke-opacity:1" />
  <path
     d="m 666.73278,297.64839 -2.69659,8.42686 1.3483,10.4493 3.37074,12.13467 0.33707,9.101 2.02245,12.13467 -4.04489,6.40441 -4.71904,7.41564 -3.37074,5.39318"
     id="path3209"
     style="fill:none;stroke:#000000;stroke-width:1px;stroke-linecap:butt;stroke-linejoin:miter;stroke-opacity:1" />
  <path
     d="m 613.81213,233.26722 c 0,0 -3.52782,1.75058 -5.39319,2.35952 -1.96949,0.64293 -4.77096,-0.26778 -6.06733,1.34829 -2.60131,3.24283 -0.18838,8.31877 0,12.47175 0.11247,2.47952 1.18724,4.98717 0.67415,7.41563 -0.47826,2.26362 -2.7904,3.82771 -3.37074,6.06734 -0.45094,1.74025 0.76252,3.76518 0,5.39318 -1.48886,3.17878 -8.08979,6.74149 -8.08979,6.74149"
     id="path3211"
     style="fill:none;stroke:#000000;stroke-width:1px;stroke-linecap:butt;stroke-linejoin:miter;stroke-opacity:1" />
  <path
     d="m 628.98047,200.90809 -3.37074,9.43808 2.35952,7.41563 -6.06734,8.42686 5.39319,20.56153 3.37074,10.4493 -4.04489,6.06733 -1.68537,9.77515 2.35952,8.76393 5.73026,11.7976 -0.67415,7.07856 -6.74148,6.06733 -10.78638,-2.69659 -7.41563,4.38197 -6.06733,0.33707 -6.40441,-2.69659"
     id="path3213"
     style="fill:none;stroke:#000000;stroke-width:1px;stroke-linecap:butt;stroke-linejoin:miter;stroke-opacity:1" />
  <path
     d="m 602.35161,196.8632 -8.42686,8.76393 -5.39318,3.70782 -3.70782,8.08978 3.37074,13.82004 -0.33707,7.07856 -6.74149,11.12345 -9.43807,7.07856 -1.68537,2.35952"
     id="path3215"
     style="fill:none;stroke:#000000;stroke-width:1px;stroke-linecap:butt;stroke-linejoin:miter;stroke-opacity:1" />
  <path
     d="m 530.21773,195.85198 -0.33708,9.43808 -2.02244,5.73026 -0.67415,4.04489 4.04489,5.39319 3.03367,2.02244 4.71904,-2.02244 0.67415,5.39318 -2.02245,5.39319 0,4.38197 0,2.69659"
     id="path3217"
     style="fill:none;stroke:#000000;stroke-width:1px;stroke-linecap:butt;stroke-linejoin:miter;stroke-opacity:1" />
  <path
     d="m 585.83497,196.52613 c 0,0 -2.93627,4.03416 -4.38196,6.06733 -0.79478,1.11775 -1.20482,2.63068 -2.35952,3.37075 -2.11524,1.35569 -4.91823,1.62244 -7.41563,1.34829 -2.30249,-0.25275 -4.26505,-1.80863 -6.40441,-2.69659 -2.46669,-1.02382 -4.76285,-3.34269 -7.41564,-3.03367 -2.88014,0.3355 -5.13949,2.90023 -7.07855,5.05611 -1.9851,2.20707 -3.46919,4.92806 -4.38197,7.75271 -0.62571,1.9363 -1.38314,4.15995 -0.67415,6.06734 0.74791,2.01209 3.60312,2.54822 4.71904,4.38196 1.09119,1.7931 1.63555,3.96891 1.68537,6.06734 0.0602,2.5342 -1.50765,4.88696 -1.68537,7.41563 -0.18971,2.69928 0.56169,5.38618 0.67415,8.08978 0.0374,0.89809 0,2.69659 0,2.69659"
     id="path3219"
     style="fill:none;stroke:#000000;stroke-width:1px;stroke-linecap:butt;stroke-linejoin:miter;stroke-opacity:1" />
  <path
     d="m 247.07539,95.74094 7.07856,4.38196 9.77515,1.01123 -1.01122,8.08978 -1.01122,6.40441 8.08978,0.67415 0,5.39318 1.01122,4.04489 -2.69659,7.07856"
     id="path3240"
     style="fill:none;stroke:#000000;stroke-width:1px;stroke-linecap:butt;stroke-linejoin:miter;stroke-opacity:1" />
  <path
     d="m 161.12147,78.550156 4.38197,3.707816 7.07855,-1.011223 3.03367,1.348297 3.37074,-2.359519 6.40441,7.415632 9.43808,-0.674148 7.41563,3.707816 2.6966,6.741484 6.40441,3.033669 2.69659,7.41563 1.68537,7.75271 -0.33707,7.75271 2.02244,5.05611 0,2.35952"
     id="path3242"
     style="fill:none;stroke:#000000;stroke-width:1px;stroke-linecap:butt;stroke-linejoin:miter;stroke-opacity:1" />
  <path
     d="m 821.44984,482.70213 c 0,0 -1.39985,-4.69836 -3.03366,-6.40441 -3.16339,-3.30325 -8.83587,-3.23639 -12.13468,-6.40441 -2.90501,-2.78983 -2.67607,-8.27637 -6.06733,-10.4493 -1.99567,-1.27872 -4.99343,0.45282 -7.07856,-0.67415 -2.53166,-1.36831 -2.88981,-5.3221 -5.39319,-6.74148 -2.17019,-1.23047 -5.54748,0.64221 -7.41563,-1.01122 -1.65303,-1.46304 -0.71227,-4.42298 -1.68537,-6.40441 -0.81234,-1.6541 -2.46583,-2.77664 -3.37074,-4.38197 -1.06557,-1.89035 -2.35952,-6.06734 -2.35952,-6.06734"
     id="path3244"
     style="fill:none;stroke:#000000;stroke-width:1px;stroke-linecap:butt;stroke-linejoin:miter;stroke-opacity:1" />
  <path
     d="m 857.51678,493.48851 -4.04489,-7.75271 -6.74148,-5.73026 -4.04489,0.67415 -10.11223,-10.4493 -3.03366,-5.39319 -2.02245,-9.77515 0,-4.04489"
     id="path3246"
     style="fill:none;stroke:#000000;stroke-width:1px;stroke-linecap:butt;stroke-linejoin:miter;stroke-opacity:1" />
  <path
     d="m 861.2246,527.19593 9.43808,-7.75271 5.73026,-0.33707 6.06734,-12.13468 4.04489,-10.4493 -1.01123,-10.4493 -7.07855,-2.02244 -4.38197,-10.4493 -5.05611,-1.3483 -0.67415,-5.05611 0,-5.73026 -3.37074,-3.37075"
     id="path3248"
     style="fill:none;stroke:#000000;stroke-width:1px;stroke-linecap:butt;stroke-linejoin:miter;stroke-opacity:1" />
  <path
     d="m 751.00133,563.93701 2.02245,6.74149 -7.41563,1.68537 -14.15712,-2.35952 -11.12345,-5.05611 -9.77515,-3.70782 -8.08978,-2.35952"
     id="path3250"
     style="fill:none;stroke:#000000;stroke-width:1px;stroke-linecap:butt;stroke-linejoin:miter;stroke-opacity:1" />
  <path
     d="m 862.23582,497.87047 c 0,0 -7.06994,4.10891 -10.4493,6.40441 -4.64717,3.15668 -9.08109,6.62163 -13.48297,10.11223 -4.24958,3.36983 -8.54574,6.70748 -12.47174,10.4493 -2.87789,2.74289 -4.91169,6.37534 -8.08978,8.76393 -4.21763,3.16989 -10.61447,3.16878 -14.15712,7.07855 -2.7462,3.03079 -1.34024,8.72645 -4.38196,11.46053 -2.93898,2.64172 -8.28526,0.68122 -11.46053,3.03367 -2.22977,1.65196 -3.7833,4.36886 -4.38196,7.07855 -0.61032,2.76249 1.76074,5.69885 1.01122,8.42686 -0.97644,3.55392 -5.44964,5.31213 -6.74148,8.76393 -1.302,3.47896 2.18374,8.7505 -0.67415,11.12345 -2.78774,2.3147 -7.34055,-2.46883 -10.78638,-1.3483 -2.34341,0.76204 -4.3057,2.84485 -5.39318,5.05611 -1.54431,3.14018 0.37611,7.23669 -1.01123,10.4493 -1.42056,3.28952 -3.52988,7.59392 -7.07855,8.08978 -2.25319,0.31484 -3.65167,-2.78293 -5.73027,-3.70781 -2.76406,-1.22988 -5.76471,-1.96284 -8.76393,-2.35952 -2.22776,-0.29464 -4.57976,0.61377 -6.74148,0 -4.31938,-1.22639 -7.03184,-6.33836 -11.46052,-7.07856 -3.52194,-0.58865 -7.00611,3.30559 -10.4493,2.35952 -2.8356,-0.77913 -4.29712,-4.01624 -6.40441,-6.06734 -1.93572,-1.88411 -4.88691,-3.16401 -5.73026,-5.73026 -1.17081,-3.56268 -0.32752,-7.95931 1.68537,-11.12345 0.65233,-1.02543 2.4809,-0.94009 3.03366,-2.02244 1.32967,-2.60359 -0.42188,-5.84169 -0.33707,-8.76393 0.10152,-3.4979 1.95646,-7.08001 1.01122,-10.4493 -0.45524,-1.62272 -2.56245,-2.42673 -3.03366,-4.04489 -0.81917,-2.81309 1.56511,-5.97274 0.67414,-8.76393 -0.80056,-2.50796 -3.9521,-3.67738 -5.05611,-6.06734 -1.38659,-3.00167 -0.23446,-6.80403 -1.68537,-9.77515 -1.46591,-3.00183 -4.4082,-5.02488 -6.74148,-7.41563 -2.38678,-2.44557 -7.41564,-7.07856 -7.41564,-7.07856"
     id="path3252"
     style="fill:none;stroke:#000000;stroke-width:1px;stroke-linecap:butt;stroke-linejoin:miter;stroke-opacity:1" />
  <path
     d="m 819.4274,506.6344 c 0,0 -5.70142,3.44645 -8.08978,5.73026 -1.8518,1.77074 -2.66707,4.53303 -4.71904,6.06734 -2.70703,2.02411 -6.08531,4.1367 -9.43808,3.70781 -3.03176,-0.38783 -4.87118,-3.69973 -7.41563,-5.39318 -3.06393,-2.03918 -5.76327,-5.52614 -9.43808,-5.73027 -3.46323,-0.19238 -7.27435,1.67102 -9.43808,4.38197 -1.00354,1.25734 0.2209,3.68469 -1.01122,4.71904 -2.32507,1.95187 -6.9945,-1.84889 -9.101,0.33707 -1.48134,1.53721 0.65149,4.37145 0,6.40441 -0.58993,1.84087 -2.9229,2.83855 -3.37075,4.71904 -0.34238,1.43763 0.84789,2.91438 0.67415,4.38197 -0.31397,2.6522 -0.81629,5.927 -3.03366,7.41563 -1.77242,1.18992 -4.31714,0.448 -6.40441,0 -2.40934,-0.51713 -4.32413,-2.55546 -6.74149,-3.03367 -3.41866,-0.6763 -7.25158,-1.04829 -10.4493,0.33707 -1.74964,0.758 -2.1649,3.7264 -4.04489,4.0449 -3.56738,0.60436 -6.38072,-3.46633 -9.77515,-4.71904 -2.07096,-0.76428 -4.23317,-2.08375 -6.40441,-1.68537 -1.90134,0.34886 -2.80112,3.61237 -4.71904,3.37074 -2.76903,-0.34886 -4.08612,-3.93849 -5.39319,-6.40441 -2.13228,-4.02275 -0.97586,-9.5037 -3.70781,-13.1459 -1.27207,-1.69591 -3.96698,-1.80224 -5.39319,-3.37074 -1.18316,-1.30119 -0.96188,-3.65153 -2.35952,-4.71904 -1.3659,-1.04327 -5.05611,-1.01122 -5.05611,-1.01122"
     id="path3256"
     style="fill:none;stroke:#000000;stroke-width:1px;stroke-linecap:butt;stroke-linejoin:miter;stroke-opacity:1" />
  <path
     d="m 866.95486,501.57829 -5.39318,7.07855 -10.44931,4.38197 -9.77515,7.07856 -4.38196,5.39319 -11.12345,7.07855 -10.4493,9.43808 -2.6966,5.73026 -4.71903,8.76393 -7.41564,0.67415 -4.04489,-1.3483 -3.37074,-2.35952"
     id="path3258"
     style="fill:none;stroke:#000000;stroke-width:1px;stroke-linecap:butt;stroke-linejoin:miter;stroke-opacity:1" />
  <path
     d="m 832.23622,573.37509 c 0,0 -4.00314,-1.48273 -5.73026,-2.69659 -3.12004,-2.19285 -4.3707,-7.24619 -8.08978,-8.08978 -1.97539,-0.44807 -3.71177,1.8534 -5.73027,2.02244 -2.61387,0.2189 -5.30506,-0.40526 -7.7527,-1.34829 -2.35611,-0.90776 -4.50563,-2.38058 -6.40441,-4.04489 -1.31985,-1.15687 -3.37074,-4.04489 -3.37074,-4.04489"
     id="path3260"
     style="fill:none;stroke:#000000;stroke-width:1px;stroke-linecap:butt;stroke-linejoin:miter;stroke-opacity:1" />
  <path
     d="m 835.60696,570.6785 c 0,0 2.25385,2.54858 3.70782,3.37074 1.02111,0.5774 2.37506,1.63144 3.37074,1.01122 2.32043,-1.44542 0.59838,-5.46086 1.3483,-8.08978 0.56665,-1.98644 2.72966,-3.69802 2.35952,-5.73026 -0.4131,-2.26808 -3.2483,-3.28079 -4.71904,-5.05611 -1.33331,-1.60944 -2.74781,-3.19967 -3.70782,-5.05612 -0.65283,-1.26242 -0.19534,-3.21388 -1.3483,-4.04489 -2.73449,-1.97091 -6.89317,0.9998 -10.11222,0 -2.08342,-0.64709 -3.21691,-3.86003 -5.39319,-3.70781 -1.8246,0.12762 -2.29137,3.18759 -4.04489,3.70781 -1.31044,0.38877 -4.04489,-0.67414 -4.04489,-0.67414"
     id="path3262"
     style="fill:none;stroke:#000000;stroke-width:1px;stroke-linecap:butt;stroke-linejoin:miter;stroke-opacity:1" />
  <path
     d="m 776.61897,497.19632 c 0,0 -3.666,4.70698 -6.06733,6.40441 -0.90364,0.63875 -1.93122,1.25256 -3.03367,1.3483 -3.23069,0.28055 -6.21459,-2.71337 -9.43808,-2.35952 -2.4974,0.27415 -4.26343,2.95671 -6.74148,3.37074 -1.67704,0.28019 -3.42045,-1.13846 -5.05611,-0.67415 -1.53622,0.43608 -2.13395,2.76336 -3.70782,3.03367 -2.94235,0.50534 -5.4713,-2.61244 -8.42686,-3.03367 -1.78322,-0.25415 -3.72763,-0.34877 -5.39318,0.33708 -1.10441,0.45478 -1.50582,2.26674 -2.6966,2.35952 -2.5173,0.19613 -4.33801,-2.59393 -6.40441,-4.04489 -1.04843,-0.73618 -2.04878,-1.54027 -3.03366,-2.35952 -1.04016,-0.86522 -1.99565,-1.82882 -3.03367,-2.6966 -1.5348,-1.28308 -4.34442,-1.74272 -4.71904,-3.70781 -0.29231,-1.53331 2.44118,-2.4861 2.35952,-4.04489 -0.10933,-2.08712 -3.58917,-2.96951 -3.70782,-5.05612 -0.0514,-0.9044 1.3483,-2.35952 1.3483,-2.35952"
     id="path3264"
     style="fill:none;stroke:#000000;stroke-width:1px;stroke-linecap:butt;stroke-linejoin:miter;stroke-opacity:1" />
  <path
     d="m 825.15766,499.89292 -6.06734,-0.33708 -8.42685,-12.80882 -4.04489,-3.70781 -3.37074,2.35951 -6.74149,-1.68537 -5.73026,-4.71904 -5.39319,0.67415 -1.68537,2.6966 -6.40441,0 -5.05611,-5.05612 -2.69659,-8.42685 -5.05612,-10.11223 -1.68537,-7.07856 -1.01122,-3.37074"
     id="path3266"
     style="fill:none;stroke:#000000;stroke-width:1px;stroke-linecap:butt;stroke-linejoin:miter;stroke-opacity:1" />
  <path
     d="m 815.38251,364.72616 7.07856,4.38196 5.39318,7.75271 4.71904,6.74148 2.02245,5.39319 0.33707,10.4493 4.71904,7.07856 4.71904,3.37074 4.38197,-2.69659 3.37074,4.71904"
     id="path3268"
     style="fill:none;stroke:#000000;stroke-width:1px;stroke-linecap:butt;stroke-linejoin:miter;stroke-opacity:1" />
  <path
     d="m 854.14604,356.97345 c 0,0 -1.67733,-2.81069 -2.02244,-4.38196 -0.40976,-1.86562 -1.24085,-4.27811 0,-5.73026 1.40401,-1.64309 4.25513,-1.23836 6.40441,-1.01123 1.5563,0.16446 2.88115,1.24186 4.38196,1.68537 2.09216,0.61826 4.96584,-0.29179 6.40441,1.3483 1.93204,2.20268 0.93829,5.84592 0.67415,8.76393 -0.19901,2.1985 -0.44315,4.57961 -1.68537,6.40441 -1.1761,1.72766 -4.41153,1.71972 -5.05611,3.70782 -1.01917,3.14346 2.9504,6.13457 3.03366,9.43807 0.0879,3.48743 -2.76269,6.62432 -2.69659,10.11223 0.029,1.52796 1.71668,2.89879 1.3483,4.38196 -0.34472,1.38792 -2.66045,1.65315 -3.03367,3.03367 -0.57611,2.13098 2.03377,4.22459 1.68537,6.40441 -0.35907,2.24656 -2.21537,4.01312 -3.70782,5.73026 -1.46304,1.6833 -2.96652,3.60248 -5.05611,4.38197 -0.94745,0.35343 -2.10889,-0.40909 -3.03367,0 -1.52753,0.67574 -2.16883,2.54791 -3.37074,3.70782 -1.37681,1.3287 -3.72282,1.91154 -4.38196,3.70781 -0.94176,2.56645 1.62397,5.36993 1.34829,8.08978 -0.15781,1.55699 -0.2263,3.81607 -1.68537,4.38197 -1.63968,0.63595 -3.01927,-2.81092 -4.71904,-2.35952 -2.34925,0.62388 -3.06155,3.84444 -4.04489,6.06733 -0.56225,1.27098 -1.2763,2.68061 -1.01122,4.04489 0.29148,1.50018 2.69659,3.70782 2.69659,3.70782"
     id="path3270"
     style="fill:none;stroke:#000000;stroke-width:1px;stroke-linecap:butt;stroke-linejoin:miter;stroke-opacity:1" />
  <path
     d="m 925.2687,311.46843 c 0,0 -4.37857,3.73618 -7.07856,4.04489 -2.33092,0.26652 -5.25716,-0.20557 -6.74148,-2.02244 -1.57034,-1.92216 0.45285,-5.20417 -0.67415,-7.41563 -0.54232,-1.06416 -1.51493,-2.18564 -2.69659,-2.35952 -1.34316,-0.19765 -2.3591,1.53011 -3.70782,1.68537 -1.70747,0.19656 -3.48148,-1.70016 -5.05611,-1.01123 -2.17146,0.95005 -2.90573,3.83698 -3.70782,6.06734 -0.53772,1.49523 0.38275,3.53252 -0.67415,4.71904 -1.46829,1.64837 -5.05666,-0.0629 -6.40441,1.68537 -1.64637,2.13567 0.15781,5.39781 0,8.08978 -0.11255,1.91996 0.43098,4.15621 -0.67415,5.73026 -1.73239,2.46746 -6.50476,1.48028 -8.08978,4.04489 -0.88605,1.43366 -0.59036,3.47752 0,5.05612 1.19958,3.20765 4.52159,5.14501 6.74149,7.7527 1.13768,1.33642 2.97242,2.3356 3.37074,4.04489 0.76073,3.2645 -1.18441,6.63593 -2.35952,9.77516 -1.10993,2.96509 -1.8204,6.56618 -4.38197,8.42685 -1.10593,0.80332 -2.73512,1.06519 -4.04489,0.67415 -1.90474,-0.56868 -2.94855,-2.66767 -4.38196,-4.04489 -1.48956,-1.43117 -4.38197,-4.38197 -4.38197,-4.38197"
     id="path3272"
     style="fill:none;stroke:#000000;stroke-width:1px;stroke-linecap:butt;stroke-linejoin:miter;stroke-opacity:1" />
  <path
     d="m 880.7749,431.12978 -3.03366,-8.76393 2.69659,-14.49419 7.41563,-4.04489 -3.03366,-12.80882 0.67414,-13.48297 -6.74148,-8.08978"
     id="path3274"
     style="fill:none;stroke:#000000;stroke-width:1px;stroke-linecap:butt;stroke-linejoin:miter;stroke-opacity:1" />
  <path
     d="m 843.35967,357.31053 0,8.08978 4.71904,9.43807 1.68537,5.39319 -3.03367,4.04489 -9.101,0 -3.70782,1.3483"
     id="path3276"
     style="fill:none;stroke:#000000;stroke-width:1px;stroke-linecap:butt;stroke-linejoin:miter;stroke-opacity:1" />
  <path
     d="m 486.39808,174.95338 4.38197,8.08978 4.71904,1.01122 2.02244,8.08978 10.4493,9.77516"
     id="path3278"
     style="fill:none;stroke:#000000;stroke-width:1px;stroke-linecap:butt;stroke-linejoin:miter;stroke-opacity:1" />
  <path
     d="m 909.0572,319.86229 -8.5805,6.19703 -5.72034,12.39407 -5.24365,13.34746"
     id="path3280"
     style="fill:none;stroke:#000000;stroke-width:1px;stroke-linecap:butt;stroke-linejoin:miter;stroke-opacity:1" />
</svg>
